<svg version="1.1" xmlns="http://www.w3.org/2000/svg" xmlns:xlink="http://www.w3.org/1999/xlink" width="216.60000000000002" height="294.40000000000003"><defs><linearGradient id="SNTkONrxZTza" x1="300px" x2="500px" y1="740.5000021457672px" y2="2327.700007152557px" gradientUnits="userSpaceOnUse"><stop offset="0" stop-color="rgb(255,193,7)" stop-opacity="1"/><stop offset="1" stop-color="rgb(211,211,211)" stop-opacity="1"/></linearGradient><linearGradient id="pGBepCXPafhv" x1="300px" x2="500px" y1="873.500002861023px" y2="2327.700007152557px" gradientUnits="userSpaceOnUse"><stop offset="0" stop-color="rgb(255,193,7)" stop-opacity="1"/><stop offset="1" stop-color="rgb(211,211,211)" stop-opacity="1"/></linearGradient><linearGradient id="hGPIsWrfVboP" x1="300px" x2="400px" y1="341.5px" y2="1958.0000064373016px" gradientUnits="userSpaceOnUse"><stop offset="0" stop-color="rgb(255,193,7)" stop-opacity="1"/><stop offset="1" stop-color="rgb(211,211,211)" stop-opacity="1"/></linearGradient><linearGradient id="uFJiKRJTUOOb" x1="300px" x2="400px" y1="474.50000071525574px" y2="1958.0000064373016px" gradientUnits="userSpaceOnUse"><stop offset="0" stop-color="rgb(255,193,7)" stop-opacity="1"/><stop offset="1" stop-color="rgb(211,211,211)" stop-opacity="1"/></linearGradient><linearGradient id="PkBMQmIwsdoQ" x1="300px" x2="400px" y1="607.5000014305115px" y2="1958.0000064373016px" gradientUnits="userSpaceOnUse"><stop offset="0" stop-color="rgb(255,193,7)" stop-opacity="1"/><stop offset="1" stop-color="rgb(211,211,211)" stop-opacity="1"/></linearGradient><linearGradient id="QtwJTxoMdlAn" x1="400px" x2="1303.0000007152557px" y1="1958.0000064373016px" y2="607.5000014305115px" gradientUnits="userSpaceOnUse"><stop offset="0" stop-color="rgb(211,211,211)" stop-opacity="1"/><stop offset="1" stop-color="rgb(29,122,218)" stop-opacity="1"/></linearGradient><linearGradient id="eupyclbakTRv" x1="400px" x2="1303.0000007152557px" y1="1958.0000064373016px" y2="1006.5000035762787px" gradientUnits="userSpaceOnUse"><stop offset="0" stop-color="rgb(211,211,211)" stop-opacity="1"/><stop offset="1" stop-color="rgb(29,122,218)" stop-opacity="1"/></linearGradient><linearGradient id="ZavcFOKKnSyb" x1="400px" x2="1303.0000007152557px" y1="1958.0000064373016px" y2="1139.5000042915344px" gradientUnits="userSpaceOnUse"><stop offset="0" stop-color="rgb(211,211,211)" stop-opacity="1"/><stop offset="1" stop-color="rgb(29,122,218)" stop-opacity="1"/></linearGradient><linearGradient id="NymRGMsNdSao" x1="400px" x2="1303.0000007152557px" y1="1958.0000064373016px" y2="474.50000071525574px" gradientUnits="userSpaceOnUse"><stop offset="0" stop-color="rgb(211,211,211)" stop-opacity="1"/><stop offset="1" stop-color="rgb(29,122,218)" stop-opacity="1"/></linearGradient><linearGradient id="npWQyzTMkROI" x1="500px" x2="1303.0000007152557px" y1="2327.700007152557px" y2="873.500002861023px" gradientUnits="userSpaceOnUse"><stop offset="0" stop-color="rgb(211,211,211)" stop-opacity="1"/><stop offset="1" stop-color="rgb(29,122,218)" stop-opacity="1"/></linearGradient><linearGradient id="fhLwdqGuTMWm" x1="500px" x2="1303.0000007152557px" y1="2327.700007152557px" y2="1405.500005722046px" gradientUnits="userSpaceOnUse"><stop offset="0" stop-color="rgb(211,211,211)" stop-opacity="1"/><stop offset="1" stop-color="rgb(29,122,218)" stop-opacity="1"/></linearGradient><linearGradient id="qaQkkkwvPyhw" x1="500px" x2="400px" y1="2327.700007152557px" y2="2036.0000064373016px" gradientUnits="userSpaceOnUse"><stop offset="0" stop-color="rgb(211,211,211)" stop-opacity="1"/><stop offset="1" stop-color="rgb(211,211,211)" stop-opacity="1"/></linearGradient><linearGradient id="CPwlcBTUgDGf" x1="500px" x2="1303.0000007152557px" y1="2327.700007152557px" y2="740.5000021457672px" gradientUnits="userSpaceOnUse"><stop offset="0" stop-color="rgb(211,211,211)" stop-opacity="1"/><stop offset="1" stop-color="rgb(29,122,218)" stop-opacity="1"/></linearGradient><linearGradient id="AiSKhnGxgzor" x1="500px" x2="1303.0000007152557px" y1="2327.700007152557px" y2="1272.5000050067902px" gradientUnits="userSpaceOnUse"><stop offset="0" stop-color="rgb(211,211,211)" stop-opacity="1"/><stop offset="1" stop-color="rgb(29,122,218)" stop-opacity="1"/></linearGradient></defs><g transform="translate(28.1,4.6000000000000005) scale(0.1,0.1)"><path fill="rgb(244,236,255)" stroke="rgb(255,255,255)" paint-order="fill stroke markers" d=" M 801.5000003576279 -44 L 1874.0000007152557 -44 L 1874.0000007152557 -44 A 8 8 0 0 1 1882.0000007152557 -36 L 1882.0000007152557 2887.400007152557 L 1882.0000007152557 2887.400007152557 A 8 8 0 0 1 1874.0000007152557 2895.400007152557 L -271 2895.400007152557 L -271 2895.400007152557 A 8 8 0 0 1 -279 2887.400007152557 L -279 -36 L -279 -36 A 8 8 0 0 1 -271 -44 L 801.5000003576279 -44 Z" fill-opacity="1" stroke-opacity="1" stroke-miterlimit="10" stroke-width="2"/><text fill="rgb(0,0,0)" stroke="none" font-family="Avenir, Helvetica, Arial, sans-serif" font-size="32px" font-style="normal" font-weight="bold" text-decoration="normal" x="801.5000003576279" y="31" text-anchor="middle" dominant-baseline="text-after-edge" fill-opacity="1">.</text><path fill="rgb(255,255,255)" stroke="rgb(211,211,211)" paint-order="fill stroke markers" d=" M 300 157.5 L 669.5 157.5 L 669.5 157.5 A 8 8 0 0 1 677.5 165.5 L 677.5 966.500002861023 L 677.5 966.500002861023 A 8 8 0 0 1 669.5 974.500002861023 L -69.5 974.500002861023 L -69.5 974.500002861023 A 8 8 0 0 1 -77.5 966.500002861023 L -77.5 165.5 L -77.5 165.5 A 8 8 0 0 1 -69.5 157.5 L 300 157.5 Z" fill-opacity="1" stroke-opacity="1" stroke-miterlimit="10"/><text fill="rgb(0,0,0)" stroke="none" font-family="Avenir, Helvetica, Arial, sans-serif" font-size="32px" font-style="normal" font-weight="bold" text-decoration="normal" x="300" y="232.5" text-anchor="middle" dominant-baseline="text-after-edge" fill-opacity="1">outputs.tf</text><path fill="rgb(255,255,255)" stroke="rgb(211,211,211)" paint-order="fill stroke markers" d=" M 1303.0000007152557 157.5 L 1672.5000007152557 157.5 L 1672.5000007152557 157.5 A 8 8 0 0 1 1680.5000007152557 165.5 L 1680.5000007152557 1498.500005722046 L 1680.5000007152557 1498.500005722046 A 8 8 0 0 1 1672.5000007152557 1506.500005722046 L 933.5000007152557 1506.500005722046 L 933.5000007152557 1506.500005722046 A 8 8 0 0 1 925.5000007152557 1498.500005722046 L 925.5000007152557 165.5 L 925.5000007152557 165.5 A 8 8 0 0 1 933.5000007152557 157.5 L 1303.0000007152557 157.5 Z" fill-opacity="1" stroke-opacity="1" stroke-miterlimit="10"/><text fill="rgb(0,0,0)" stroke="none" font-family="Avenir, Helvetica, Arial, sans-serif" font-size="32px" font-style="normal" font-weight="bold" text-decoration="normal" x="1303.0000007152557" y="232.5" text-anchor="middle" dominant-baseline="text-after-edge" fill-opacity="1">variables.tf</text><path fill="rgb(255,255,255)" stroke="rgb(211,211,211)" paint-order="fill stroke markers" d=" M 485.1 1753.0000064373016 L 995.7 1753.0000064373016 L 995.7 1753.0000064373016 A 8 8 0 0 1 1003.7 1761.0000064373016 L 1003.7 2685.900007152557 L 1003.7 2685.900007152557 A 8 8 0 0 1 995.7 2693.900007152557 L -25.5 2693.900007152557 L -25.5 2693.900007152557 A 8 8 0 0 1 -33.5 2685.900007152557 L -33.5 1761.0000064373016 L -33.5 1761.0000064373016 A 8 8 0 0 1 -25.5 1753.0000064373016 L 485.1 1753.0000064373016 Z" fill-opacity="1" stroke-opacity="1" stroke-miterlimit="10"/><text fill="rgb(0,0,0)" stroke="none" font-family="Avenir, Helvetica, Arial, sans-serif" font-size="32px" font-style="normal" font-weight="bold" text-decoration="normal" x="485.1" y="1828.0000064373016" text-anchor="middle" dominant-baseline="text-after-edge" fill-opacity="1">main.tf</text><path fill="rgb(255,255,255)" stroke="rgb(0,0,0)" paint-order="fill stroke markers" d=" M 400 1902.0000064373016 L 722 1902.0000064373016 L 722 1902.0000064373016 A 8 8 0 0 1 730 1910.0000064373016 L 730 2084.0000064373016 L 730 2084.0000064373016 A 8 8 0 0 1 722 2092.0000064373016 L 78 2092.0000064373016 L 78 2092.0000064373016 A 8 8 0 0 1 70 2084.0000064373016 L 70 1910.0000064373016 L 70 1910.0000064373016 A 8 8 0 0 1 78 1902.0000064373016 L 400 1902.0000064373016 Z" fill-opacity="1" stroke-opacity="1" stroke-miterlimit="10" stroke-width="5"/><rect fill="rgb(255,255,255)" stroke="none" x="239.5" y="1853.0000064373016" width="321" height="96" fill-opacity="1"/><text fill="rgb(0,0,0)" stroke="none" font-family="Avenir, Helvetica, Arial, sans-serif" font-size="32px" font-style="normal" font-weight="bold" text-decoration="normal" x="400" y="1917.0000064373016" text-anchor="middle" dominant-baseline="text-after-edge" fill-opacity="1">hcloud_network</text><path fill="rgb(255,255,255)" stroke="rgb(0,0,0)" paint-order="fill stroke markers" d=" M 500 2214.5000071525574 L 892.2 2214.5000071525574 L 892.2 2214.5000071525574 A 8 8 0 0 1 900.2 2222.5000071525574 L 900.2 2582.400007152557 L 900.2 2582.400007152557 A 8 8 0 0 1 892.2 2590.400007152557 L 107.80000000000001 2590.400007152557 L 107.80000000000001 2590.400007152557 A 8 8 0 0 1 99.80000000000001 2582.400007152557 L 99.80000000000001 2222.5000071525574 L 99.80000000000001 2222.5000071525574 A 8 8 0 0 1 107.80000000000001 2214.5000071525574 L 500 2214.5000071525574 Z" fill-opacity="1" stroke-opacity="1" stroke-miterlimit="10" stroke-width="5"/><rect fill="rgb(255,255,255)" stroke="none" x="277.5" y="2165.5000071525574" width="445" height="96" fill-opacity="1"/><text fill="rgb(0,0,0)" stroke="none" font-family="Avenir, Helvetica, Arial, sans-serif" font-size="32px" font-style="normal" font-weight="bold" text-decoration="normal" x="500" y="2229.5000071525574" text-anchor="middle" dominant-baseline="text-after-edge" fill-opacity="1">hcloud_network_subnet</text><path fill="rgb(255,255,255)" stroke="rgb(0,0,0)" paint-order="fill stroke markers" d=" M 500 2330.200007152557 L 822 2330.200007152557 L 822 2330.200007152557 A 8 8 0 0 1 830 2338.200007152557 L 830 2512.200007152557 L 830 2512.200007152557 A 8 8 0 0 1 822 2520.200007152557 L 178 2520.200007152557 L 178 2520.200007152557 A 8 8 0 0 1 170 2512.200007152557 L 170 2338.200007152557 L 170 2338.200007152557 A 8 8 0 0 1 178 2330.200007152557 L 500 2330.200007152557 Z" fill-opacity="1" stroke-opacity="1" stroke-miterlimit="10" stroke-width="5"/><rect fill="rgb(255,255,255)" stroke="none" x="410" y="2281.200007152557" width="180" height="96" fill-opacity="1"/><text fill="rgb(0,0,0)" stroke="none" font-family="Avenir, Helvetica, Arial, sans-serif" font-size="32px" font-style="normal" font-weight="bold" text-decoration="normal" x="500" y="2345.200007152557" text-anchor="middle" dominant-baseline="text-after-edge" fill-opacity="1">default</text><path fill="none" stroke="url(#SNTkONrxZTza)" paint-order="fill stroke markers" d=" M 300 740.5000021457672 L 300 1534.1000046491622 L 500 1534.1000046491622 L 500 2327.700007152557" stroke-linejoin="round" stroke-miterlimit="10" stroke-width="10"/><path fill="none" stroke="url(#pGBepCXPafhv)" paint-order="fill stroke markers" d=" M 300 873.500002861023 L 300 1600.60000500679 L 500 1600.60000500679 L 500 2327.700007152557" stroke-linejoin="round" stroke-miterlimit="10" stroke-width="10"/><path fill="none" stroke="url(#hGPIsWrfVboP)" paint-order="fill stroke markers" d=" M 300 341.5 L 300 1149.7500032186508 L 400 1149.7500032186508 L 400 1958.0000064373016" stroke-linejoin="round" stroke-miterlimit="10" stroke-width="10"/><path fill="none" stroke="url(#uFJiKRJTUOOb)" paint-order="fill stroke markers" d=" M 300 474.50000071525574 L 300 1216.2500035762787 L 400 1216.2500035762787 L 400 1958.0000064373016" stroke-linejoin="round" stroke-miterlimit="10" stroke-width="10"/><path fill="none" stroke="url(#PkBMQmIwsdoQ)" paint-order="fill stroke markers" d=" M 300 607.5000014305115 L 300 1282.7500039339066 L 400 1282.7500039339066 L 400 1958.0000064373016" stroke-linejoin="round" stroke-miterlimit="10" stroke-width="10"/><path fill="none" stroke="url(#QtwJTxoMdlAn)" paint-order="fill stroke markers" d=" M 400 1958.0000064373016 L 400 1282.7500039339066 L 1303.0000007152557 1282.7500039339066 L 1303.0000007152557 607.5000014305115" stroke-linejoin="round" stroke-miterlimit="10" stroke-width="10"/><path fill="none" stroke="url(#eupyclbakTRv)" paint-order="fill stroke markers" d=" M 400 1958.0000064373016 L 400 1482.2500050067902 L 1303.0000007152557 1482.2500050067902 L 1303.0000007152557 1006.5000035762787" stroke-linejoin="round" stroke-miterlimit="10" stroke-width="10"/><path fill="none" stroke="url(#ZavcFOKKnSyb)" paint-order="fill stroke markers" d=" M 400 1958.0000064373016 L 400 1548.750005364418 L 1303.0000007152557 1548.750005364418 L 1303.0000007152557 1139.5000042915344" stroke-linejoin="round" stroke-miterlimit="10" stroke-width="10"/><path fill="none" stroke="url(#NymRGMsNdSao)" paint-order="fill stroke markers" d=" M 400 1958.0000064373016 L 400 1216.2500035762787 L 1303.0000007152557 1216.2500035762787 L 1303.0000007152557 474.50000071525574" stroke-linejoin="round" stroke-miterlimit="10" stroke-width="10"/><path fill="none" stroke="url(#npWQyzTMkROI)" paint-order="fill stroke markers" d=" M 500 2327.700007152557 L 500 1600.60000500679 L 1303.0000007152557 1600.60000500679 L 1303.0000007152557 873.500002861023" stroke-linejoin="round" stroke-miterlimit="10" stroke-width="10"/><path fill="none" stroke="url(#fhLwdqGuTMWm)" paint-order="fill stroke markers" d=" M 500 2327.700007152557 L 500 1866.6000064373015 L 1303.0000007152557 1866.6000064373015 L 1303.0000007152557 1405.500005722046" stroke-linejoin="round" stroke-miterlimit="10" stroke-width="10"/><path fill="none" stroke="url(#qaQkkkwvPyhw)" paint-order="fill stroke markers" d=" M 500 2327.700007152557 L 500 2181.8500067949294 L 400 2181.8500067949294 L 400 2036.0000064373016" stroke-linejoin="round" stroke-miterlimit="10" stroke-width="10"/><path fill="none" stroke="url(#CPwlcBTUgDGf)" paint-order="fill stroke markers" d=" M 500 2327.700007152557 L 500 1534.1000046491622 L 1303.0000007152557 1534.1000046491622 L 1303.0000007152557 740.5000021457672" stroke-linejoin="round" stroke-miterlimit="10" stroke-width="10"/><path fill="none" stroke="url(#AiSKhnGxgzor)" paint-order="fill stroke markers" d=" M 500 2327.700007152557 L 500 1800.1000060796737 L 1303.0000007152557 1800.1000060796737 L 1303.0000007152557 1272.5000050067902" stroke-linejoin="round" stroke-miterlimit="10" stroke-width="10"/><path fill="rgb(255,247,224)" stroke="rgb(255,193,7)" paint-order="fill stroke markers" d=" M 300 261 L 566 261 L 566 261 A 8 8 0 0 1 574 269 L 574 331 L 574 331 A 8 8 0 0 1 566 339 L 34 339 L 34 339 A 8 8 0 0 1 26 331 L 26 269 L 26 269 A 8 8 0 0 1 34 261 L 300 261 Z" fill-opacity="1" stroke-opacity="1" stroke-miterlimit="10" stroke-width="5"/><text fill="rgb(0,0,0)" stroke="none" font-family="Avenir, Helvetica, Arial, sans-serif" font-size="32px" font-style="normal" font-weight="bold" text-decoration="normal" x="300" y="316" text-anchor="middle" dominant-baseline="text-after-edge" fill-opacity="1">name</text><path fill="rgb(255,247,224)" stroke="rgb(255,193,7)" paint-order="fill stroke markers" d=" M 300 394.00000071525574 L 566 394.00000071525574 L 566 394.00000071525574 A 8 8 0 0 1 574 402.00000071525574 L 574 464.00000071525574 L 574 464.00000071525574 A 8 8 0 0 1 566 472.00000071525574 L 34 472.00000071525574 L 34 472.00000071525574 A 8 8 0 0 1 26 464.00000071525574 L 26 402.00000071525574 L 26 402.00000071525574 A 8 8 0 0 1 34 394.00000071525574 L 300 394.00000071525574 Z" fill-opacity="1" stroke-opacity="1" stroke-miterlimit="10" stroke-width="5"/><text fill="rgb(0,0,0)" stroke="none" font-family="Avenir, Helvetica, Arial, sans-serif" font-size="32px" font-style="normal" font-weight="bold" text-decoration="normal" x="300" y="449.00000071525574" text-anchor="middle" dominant-baseline="text-after-edge" fill-opacity="1">id_network</text><path fill="rgb(255,247,224)" stroke="rgb(255,193,7)" paint-order="fill stroke markers" d=" M 300 527.0000014305115 L 566 527.0000014305115 L 566 527.0000014305115 A 8 8 0 0 1 574 535.0000014305115 L 574 597.0000014305115 L 574 597.0000014305115 A 8 8 0 0 1 566 605.0000014305115 L 34 605.0000014305115 L 34 605.0000014305115 A 8 8 0 0 1 26 597.0000014305115 L 26 535.0000014305115 L 26 535.0000014305115 A 8 8 0 0 1 34 527.0000014305115 L 300 527.0000014305115 Z" fill-opacity="1" stroke-opacity="1" stroke-miterlimit="10" stroke-width="5"/><text fill="rgb(0,0,0)" stroke="none" font-family="Avenir, Helvetica, Arial, sans-serif" font-size="32px" font-style="normal" font-weight="bold" text-decoration="normal" x="300" y="582.0000014305115" text-anchor="middle" dominant-baseline="text-after-edge" fill-opacity="1">ip_range_network</text><path fill="rgb(255,247,224)" stroke="rgb(255,193,7)" paint-order="fill stroke markers" d=" M 300 660.0000021457672 L 566 660.0000021457672 L 566 660.0000021457672 A 8 8 0 0 1 574 668.0000021457672 L 574 730.0000021457672 L 574 730.0000021457672 A 8 8 0 0 1 566 738.0000021457672 L 34 738.0000021457672 L 34 738.0000021457672 A 8 8 0 0 1 26 730.0000021457672 L 26 668.0000021457672 L 26 668.0000021457672 A 8 8 0 0 1 34 660.0000021457672 L 300 660.0000021457672 Z" fill-opacity="1" stroke-opacity="1" stroke-miterlimit="10" stroke-width="5"/><text fill="rgb(0,0,0)" stroke="none" font-family="Avenir, Helvetica, Arial, sans-serif" font-size="32px" font-style="normal" font-weight="bold" text-decoration="normal" x="300" y="715.0000021457672" text-anchor="middle" dominant-baseline="text-after-edge" fill-opacity="1">id_subnet</text><path fill="rgb(255,247,224)" stroke="rgb(255,193,7)" paint-order="fill stroke markers" d=" M 300 793.000002861023 L 566 793.000002861023 L 566 793.000002861023 A 8 8 0 0 1 574 801.000002861023 L 574 863.000002861023 L 574 863.000002861023 A 8 8 0 0 1 566 871.000002861023 L 34 871.000002861023 L 34 871.000002861023 A 8 8 0 0 1 26 863.000002861023 L 26 801.000002861023 L 26 801.000002861023 A 8 8 0 0 1 34 793.000002861023 L 300 793.000002861023 Z" fill-opacity="1" stroke-opacity="1" stroke-miterlimit="10" stroke-width="5"/><text fill="rgb(0,0,0)" stroke="none" font-family="Avenir, Helvetica, Arial, sans-serif" font-size="32px" font-style="normal" font-weight="bold" text-decoration="normal" x="300" y="848.000002861023" text-anchor="middle" dominant-baseline="text-after-edge" fill-opacity="1">ip_range_subnet</text><path fill="rgb(225,240,255)" stroke="rgb(29,122,218)" paint-order="fill stroke markers" d=" M 1303.0000007152557 261 L 1569.0000007152557 261 L 1569.0000007152557 261 A 8 8 0 0 1 1577.0000007152557 269 L 1577.0000007152557 331 L 1577.0000007152557 331 A 8 8 0 0 1 1569.0000007152557 339 L 1037.0000007152557 339 L 1037.0000007152557 339 A 8 8 0 0 1 1029.0000007152557 331 L 1029.0000007152557 269 L 1029.0000007152557 269 A 8 8 0 0 1 1037.0000007152557 261 L 1303.0000007152557 261 Z" fill-opacity="1" stroke-opacity="1" stroke-miterlimit="10" stroke-width="5"/><text fill="rgb(0,0,0)" stroke="none" font-family="Avenir, Helvetica, Arial, sans-serif" font-size="32px" font-style="normal" font-weight="bold" text-decoration="normal" x="1303.0000007152557" y="316" text-anchor="middle" dominant-baseline="text-after-edge" fill-opacity="1">create_network_subnet</text><path fill="rgb(225,240,255)" stroke="rgb(29,122,218)" paint-order="fill stroke markers" d=" M 1303.0000007152557 394.00000071525574 L 1569.0000007152557 394.00000071525574 L 1569.0000007152557 394.00000071525574 A 8 8 0 0 1 1577.0000007152557 402.00000071525574 L 1577.0000007152557 464.00000071525574 L 1577.0000007152557 464.00000071525574 A 8 8 0 0 1 1569.0000007152557 472.00000071525574 L 1037.0000007152557 472.00000071525574 L 1037.0000007152557 472.00000071525574 A 8 8 0 0 1 1029.0000007152557 464.00000071525574 L 1029.0000007152557 402.00000071525574 L 1029.0000007152557 402.00000071525574 A 8 8 0 0 1 1037.0000007152557 394.00000071525574 L 1303.0000007152557 394.00000071525574 Z" fill-opacity="1" stroke-opacity="1" stroke-miterlimit="10" stroke-width="5"/><text fill="rgb(0,0,0)" stroke="none" font-family="Avenir, Helvetica, Arial, sans-serif" font-size="32px" font-style="normal" font-weight="bold" text-decoration="normal" x="1303.0000007152557" y="449.00000071525574" text-anchor="middle" dominant-baseline="text-after-edge" fill-opacity="1">name</text><path fill="rgb(225,240,255)" stroke="rgb(29,122,218)" paint-order="fill stroke markers" d=" M 1303.0000007152557 527.0000014305115 L 1569.0000007152557 527.0000014305115 L 1569.0000007152557 527.0000014305115 A 8 8 0 0 1 1577.0000007152557 535.0000014305115 L 1577.0000007152557 597.0000014305115 L 1577.0000007152557 597.0000014305115 A 8 8 0 0 1 1569.0000007152557 605.0000014305115 L 1037.0000007152557 605.0000014305115 L 1037.0000007152557 605.0000014305115 A 8 8 0 0 1 1029.0000007152557 597.0000014305115 L 1029.0000007152557 535.0000014305115 L 1029.0000007152557 535.0000014305115 A 8 8 0 0 1 1037.0000007152557 527.0000014305115 L 1303.0000007152557 527.0000014305115 Z" fill-opacity="1" stroke-opacity="1" stroke-miterlimit="10" stroke-width="5"/><text fill="rgb(0,0,0)" stroke="none" font-family="Avenir, Helvetica, Arial, sans-serif" font-size="32px" font-style="normal" font-weight="bold" text-decoration="normal" x="1303.0000007152557" y="582.0000014305115" text-anchor="middle" dominant-baseline="text-after-edge" fill-opacity="1">delete_protection</text><path fill="rgb(225,240,255)" stroke="rgb(29,122,218)" paint-order="fill stroke markers" d=" M 1303.0000007152557 660.0000021457672 L 1569.0000007152557 660.0000021457672 L 1569.0000007152557 660.0000021457672 A 8 8 0 0 1 1577.0000007152557 668.0000021457672 L 1577.0000007152557 730.0000021457672 L 1577.0000007152557 730.0000021457672 A 8 8 0 0 1 1569.0000007152557 738.0000021457672 L 1037.0000007152557 738.0000021457672 L 1037.0000007152557 738.0000021457672 A 8 8 0 0 1 1029.0000007152557 730.0000021457672 L 1029.0000007152557 668.0000021457672 L 1029.0000007152557 668.0000021457672 A 8 8 0 0 1 1037.0000007152557 660.0000021457672 L 1303.0000007152557 660.0000021457672 Z" fill-opacity="1" stroke-opacity="1" stroke-miterlimit="10" stroke-width="5"/><text fill="rgb(0,0,0)" stroke="none" font-family="Avenir, Helvetica, Arial, sans-serif" font-size="32px" font-style="normal" font-weight="bold" text-decoration="normal" x="1303.0000007152557" y="715.0000021457672" text-anchor="middle" dominant-baseline="text-after-edge" fill-opacity="1">network_zone</text><path fill="rgb(225,240,255)" stroke="rgb(29,122,218)" paint-order="fill stroke markers" d=" M 1303.0000007152557 793.000002861023 L 1569.0000007152557 793.000002861023 L 1569.0000007152557 793.000002861023 A 8 8 0 0 1 1577.0000007152557 801.000002861023 L 1577.0000007152557 863.000002861023 L 1577.0000007152557 863.000002861023 A 8 8 0 0 1 1569.0000007152557 871.000002861023 L 1037.0000007152557 871.000002861023 L 1037.0000007152557 871.000002861023 A 8 8 0 0 1 1029.0000007152557 863.000002861023 L 1029.0000007152557 801.000002861023 L 1029.0000007152557 801.000002861023 A 8 8 0 0 1 1037.0000007152557 793.000002861023 L 1303.0000007152557 793.000002861023 Z" fill-opacity="1" stroke-opacity="1" stroke-miterlimit="10" stroke-width="5"/><text fill="rgb(0,0,0)" stroke="none" font-family="Avenir, Helvetica, Arial, sans-serif" font-size="32px" font-style="normal" font-weight="bold" text-decoration="normal" x="1303.0000007152557" y="848.000002861023" text-anchor="middle" dominant-baseline="text-after-edge" fill-opacity="1">vswitch_id</text><path fill="rgb(225,240,255)" stroke="rgb(29,122,218)" paint-order="fill stroke markers" d=" M 1303.0000007152557 926.0000035762787 L 1569.0000007152557 926.0000035762787 L 1569.0000007152557 926.0000035762787 A 8 8 0 0 1 1577.0000007152557 934.0000035762787 L 1577.0000007152557 996.0000035762787 L 1577.0000007152557 996.0000035762787 A 8 8 0 0 1 1569.0000007152557 1004.0000035762787 L 1037.0000007152557 1004.0000035762787 L 1037.0000007152557 1004.0000035762787 A 8 8 0 0 1 1029.0000007152557 996.0000035762787 L 1029.0000007152557 934.0000035762787 L 1029.0000007152557 934.0000035762787 A 8 8 0 0 1 1037.0000007152557 926.0000035762787 L 1303.0000007152557 926.0000035762787 Z" fill-opacity="1" stroke-opacity="1" stroke-miterlimit="10" stroke-width="5"/><text fill="rgb(0,0,0)" stroke="none" font-family="Avenir, Helvetica, Arial, sans-serif" font-size="32px" font-style="normal" font-weight="bold" text-decoration="normal" x="1303.0000007152557" y="981.0000035762787" text-anchor="middle" dominant-baseline="text-after-edge" fill-opacity="1">ip_range_network</text><path fill="rgb(225,240,255)" stroke="rgb(29,122,218)" paint-order="fill stroke markers" d=" M 1303.0000007152557 1059.0000042915344 L 1569.0000007152557 1059.0000042915344 L 1569.0000007152557 1059.0000042915344 A 8 8 0 0 1 1577.0000007152557 1067.0000042915344 L 1577.0000007152557 1129.0000042915344 L 1577.0000007152557 1129.0000042915344 A 8 8 0 0 1 1569.0000007152557 1137.0000042915344 L 1037.0000007152557 1137.0000042915344 L 1037.0000007152557 1137.0000042915344 A 8 8 0 0 1 1029.0000007152557 1129.0000042915344 L 1029.0000007152557 1067.0000042915344 L 1029.0000007152557 1067.0000042915344 A 8 8 0 0 1 1037.0000007152557 1059.0000042915344 L 1303.0000007152557 1059.0000042915344 Z" fill-opacity="1" stroke-opacity="1" stroke-miterlimit="10" stroke-width="5"/><text fill="rgb(0,0,0)" stroke="none" font-family="Avenir, Helvetica, Arial, sans-serif" font-size="32px" font-style="normal" font-weight="bold" text-decoration="normal" x="1303.0000007152557" y="1114.0000042915344" text-anchor="middle" dominant-baseline="text-after-edge" fill-opacity="1">labels</text><path fill="rgb(225,240,255)" stroke="rgb(29,122,218)" paint-order="fill stroke markers" d=" M 1303.0000007152557 1192.0000050067902 L 1569.0000007152557 1192.0000050067902 L 1569.0000007152557 1192.0000050067902 A 8 8 0 0 1 1577.0000007152557 1200.0000050067902 L 1577.0000007152557 1262.0000050067902 L 1577.0000007152557 1262.0000050067902 A 8 8 0 0 1 1569.0000007152557 1270.0000050067902 L 1037.0000007152557 1270.0000050067902 L 1037.0000007152557 1270.0000050067902 A 8 8 0 0 1 1029.0000007152557 1262.0000050067902 L 1029.0000007152557 1200.0000050067902 L 1029.0000007152557 1200.0000050067902 A 8 8 0 0 1 1037.0000007152557 1192.0000050067902 L 1303.0000007152557 1192.0000050067902 Z" fill-opacity="1" stroke-opacity="1" stroke-miterlimit="10" stroke-width="5"/><text fill="rgb(0,0,0)" stroke="none" font-family="Avenir, Helvetica, Arial, sans-serif" font-size="32px" font-style="normal" font-weight="bold" text-decoration="normal" x="1303.0000007152557" y="1247.0000050067902" text-anchor="middle" dominant-baseline="text-after-edge" fill-opacity="1">type</text><path fill="rgb(225,240,255)" stroke="rgb(29,122,218)" paint-order="fill stroke markers" d=" M 1303.0000007152557 1325.000005722046 L 1569.0000007152557 1325.000005722046 L 1569.0000007152557 1325.000005722046 A 8 8 0 0 1 1577.0000007152557 1333.000005722046 L 1577.0000007152557 1395.000005722046 L 1577.0000007152557 1395.000005722046 A 8 8 0 0 1 1569.0000007152557 1403.000005722046 L 1037.0000007152557 1403.000005722046 L 1037.0000007152557 1403.000005722046 A 8 8 0 0 1 1029.0000007152557 1395.000005722046 L 1029.0000007152557 1333.000005722046 L 1029.0000007152557 1333.000005722046 A 8 8 0 0 1 1037.0000007152557 1325.000005722046 L 1303.0000007152557 1325.000005722046 Z" fill-opacity="1" stroke-opacity="1" stroke-miterlimit="10" stroke-width="5"/><text fill="rgb(0,0,0)" stroke="none" font-family="Avenir, Helvetica, Arial, sans-serif" font-size="32px" font-style="normal" font-weight="bold" text-decoration="normal" x="1303.0000007152557" y="1380.000005722046" text-anchor="middle" dominant-baseline="text-after-edge" fill-opacity="1">ip_range_subnet</text><path fill="rgb(40,167,69)" stroke="none" paint-order="stroke fill markers" d=" M 400 1958.0000064373016 L 666 1958.0000064373016 L 666 1958.0000064373016 A 8 8 0 0 1 674 1966.0000064373016 L 674 2028.0000064373016 L 674 2028.0000064373016 A 8 8 0 0 1 666 2036.0000064373016 L 134 2036.0000064373016 L 134 2036.0000064373016 A 8 8 0 0 1 126 2028.0000064373016 L 126 1966.0000064373016 L 126 1966.0000064373016 A 8 8 0 0 1 134 1958.0000064373016 L 400 1958.0000064373016 Z" fill-opacity="1"/><text fill="rgb(255,255,255)" stroke="none" font-family="Avenir, Helvetica, Arial, sans-serif" font-size="32px" font-style="normal" font-weight="bold" text-decoration="normal" x="400" y="2013.0000064373016" text-anchor="middle" dominant-baseline="text-after-edge" fill-opacity="1">default</text><path fill="rgb(40,167,69)" stroke="none" paint-order="stroke fill markers" d=" M 500 2386.200007152557 L 766 2386.200007152557 L 766 2386.200007152557 A 8 8 0 0 1 774 2394.200007152557 L 774 2456.200007152557 L 774 2456.200007152557 A 8 8 0 0 1 766 2464.200007152557 L 234 2464.200007152557 L 234 2464.200007152557 A 8 8 0 0 1 226 2456.200007152557 L 226 2394.200007152557 L 226 2394.200007152557 A 8 8 0 0 1 234 2386.200007152557 L 500 2386.200007152557 Z" fill-opacity="1"/><text fill="rgb(255,255,255)" stroke="none" font-family="Avenir, Helvetica, Arial, sans-serif" font-size="32px" font-style="normal" font-weight="bold" text-decoration="normal" x="500" y="2441.200007152557" text-anchor="middle" dominant-baseline="text-after-edge" fill-opacity="1">default[0]</text><g transform="scale(10,10) translate(-28.1,-4.6000000000000005)"/></g></svg>