<svg version="1.1" xmlns="http://www.w3.org/2000/svg" xmlns:xlink="http://www.w3.org/1999/xlink" width="232.20000000000002" height="269"><defs><linearGradient id="xhODTCSTJlcS" x1="1403.0000007152557px" x2="300px" y1="439px" y2="1855.5000064373016px" gradientUnits="userSpaceOnUse"><stop offset="0" stop-color="rgb(211,211,211)" stop-opacity="1"/><stop offset="1" stop-color="rgb(29,122,218)" stop-opacity="1"/></linearGradient><linearGradient id="lGAazrTQgLAR" x1="1403.0000007152557px" x2="1403.0000007152557px" y1="439px" y2="689.2000007152558px" gradientUnits="userSpaceOnUse"><stop offset="0" stop-color="rgb(211,211,211)" stop-opacity="1"/><stop offset="1" stop-color="rgb(211,211,211)" stop-opacity="1"/></linearGradient><linearGradient id="lhUHlQEuFcnq" x1="1403.0000007152557px" x2="300px" y1="439px" y2="1988.5000071525574px" gradientUnits="userSpaceOnUse"><stop offset="0" stop-color="rgb(211,211,211)" stop-opacity="1"/><stop offset="1" stop-color="rgb(29,122,218)" stop-opacity="1"/></linearGradient><linearGradient id="kgezfPdntfAl" x1="1403.0000007152557px" x2="300px" y1="439px" y2="1722.500005722046px" gradientUnits="userSpaceOnUse"><stop offset="0" stop-color="rgb(211,211,211)" stop-opacity="1"/><stop offset="1" stop-color="rgb(29,122,218)" stop-opacity="1"/></linearGradient><linearGradient id="BvRLESboGaOd" x1="1403.0000007152557px" x2="300px" y1="439px" y2="2121.500007867813px" gradientUnits="userSpaceOnUse"><stop offset="0" stop-color="rgb(211,211,211)" stop-opacity="1"/><stop offset="1" stop-color="rgb(29,122,218)" stop-opacity="1"/></linearGradient><linearGradient id="ZAbPEsCVofhE" x1="1403.0000007152557px" x2="300px" y1="767.2000007152558px" y2="1589.5000050067902px" gradientUnits="userSpaceOnUse"><stop offset="0" stop-color="rgb(211,211,211)" stop-opacity="1"/><stop offset="1" stop-color="rgb(29,122,218)" stop-opacity="1"/></linearGradient><linearGradient id="GsXaNmcmrMBo" x1="1403.0000007152557px" x2="300px" y1="767.2000007152558px" y2="1323.5000035762787px" gradientUnits="userSpaceOnUse"><stop offset="0" stop-color="rgb(211,211,211)" stop-opacity="1"/><stop offset="1" stop-color="rgb(29,122,218)" stop-opacity="1"/></linearGradient><linearGradient id="oEEuhCNplnrn" x1="1403.0000007152557px" x2="300px" y1="767.2000007152558px" y2="1456.5000042915344px" gradientUnits="userSpaceOnUse"><stop offset="0" stop-color="rgb(211,211,211)" stop-opacity="1"/><stop offset="1" stop-color="rgb(29,122,218)" stop-opacity="1"/></linearGradient><linearGradient id="EviQSwzafQwN" x1="1403.0000007152557px" x2="300px" y1="767.2000007152558px" y2="2254.500008583069px" gradientUnits="userSpaceOnUse"><stop offset="0" stop-color="rgb(211,211,211)" stop-opacity="1"/><stop offset="1" stop-color="rgb(29,122,218)" stop-opacity="1"/></linearGradient><linearGradient id="CPfyVUuWAfKO" x1="576.5px" x2="1129.0000007152557px" y1="300px" y2="728.2000007152558px" gradientUnits="userSpaceOnUse"><stop offset="0" stop-color="rgb(255,193,7)" stop-opacity="1"/><stop offset="1" stop-color="rgb(211,211,211)" stop-opacity="1"/></linearGradient><linearGradient id="yELHVclyNNxy" x1="576.5px" x2="1129.0000007152557px" y1="433.00000071525574px" y2="728.2000007152558px" gradientUnits="userSpaceOnUse"><stop offset="0" stop-color="rgb(255,193,7)" stop-opacity="1"/><stop offset="1" stop-color="rgb(211,211,211)" stop-opacity="1"/></linearGradient><linearGradient id="ubCupoXTSKfB" x1="576.5px" x2="1129.0000007152557px" y1="566.0000014305115px" y2="728.2000007152558px" gradientUnits="userSpaceOnUse"><stop offset="0" stop-color="rgb(255,193,7)" stop-opacity="1"/><stop offset="1" stop-color="rgb(211,211,211)" stop-opacity="1"/></linearGradient><linearGradient id="pKoGXxeUnDGA" x1="576.5px" x2="1129.0000007152557px" y1="699.0000021457672px" y2="400px" gradientUnits="userSpaceOnUse"><stop offset="0" stop-color="rgb(255,193,7)" stop-opacity="1"/><stop offset="1" stop-color="rgb(211,211,211)" stop-opacity="1"/></linearGradient><linearGradient id="ArnGWmdikyDV" x1="576.5px" x2="1129.0000007152557px" y1="832.000002861023px" y2="400px" gradientUnits="userSpaceOnUse"><stop offset="0" stop-color="rgb(255,193,7)" stop-opacity="1"/><stop offset="1" stop-color="rgb(211,211,211)" stop-opacity="1"/></linearGradient></defs><g transform="translate(28.1,4.75) scale(0.1,0.1)"><path fill="rgb(244,236,255)" stroke="rgb(255,255,255)" paint-order="fill stroke markers" d=" M 879.5000003576279 -45.5 L 2030.0000007152557 -45.5 L 2030.0000007152557 -45.5 A 8 8 0 0 1 2038.0000007152557 -37.5 L 2038.0000007152557 2632.000008583069 L 2038.0000007152557 2632.000008583069 A 8 8 0 0 1 2030.0000007152557 2640.000008583069 L -271 2640.000008583069 L -271 2640.000008583069 A 8 8 0 0 1 -279 2632.000008583069 L -279 -37.5 L -279 -37.5 A 8 8 0 0 1 -271 -45.5 L 879.5000003576279 -45.5 Z" fill-opacity="1" stroke-opacity="1" stroke-miterlimit="10" stroke-width="2"/><text fill="rgb(0,0,0)" stroke="none" font-family="Avenir, Helvetica, Arial, sans-serif" font-size="32px" font-style="normal" font-weight="bold" text-decoration="normal" x="879.5000003576279" y="29.5" text-anchor="middle" dominant-baseline="text-after-edge" fill-opacity="1">.</text><path fill="rgb(255,255,255)" stroke="rgb(211,211,211)" paint-order="fill stroke markers" d=" M 300 157.5 L 669.5 157.5 L 669.5 157.5 A 8 8 0 0 1 677.5 165.5 L 677.5 966.500002861023 L 677.5 966.500002861023 A 8 8 0 0 1 669.5 974.500002861023 L -69.5 974.500002861023 L -69.5 974.500002861023 A 8 8 0 0 1 -77.5 966.500002861023 L -77.5 165.5 L -77.5 165.5 A 8 8 0 0 1 -69.5 157.5 L 300 157.5 Z" fill-opacity="1" stroke-opacity="1" stroke-miterlimit="10"/><text fill="rgb(0,0,0)" stroke="none" font-family="Avenir, Helvetica, Arial, sans-serif" font-size="32px" font-style="normal" font-weight="bold" text-decoration="normal" x="300" y="232.5" text-anchor="middle" dominant-baseline="text-after-edge" fill-opacity="1">outputs.tf</text><path fill="rgb(255,255,255)" stroke="rgb(211,211,211)" paint-order="fill stroke markers" d=" M 300 1222.5000035762787 L 669.5 1222.5000035762787 L 669.5 1222.5000035762787 A 8 8 0 0 1 677.5 1230.5000035762787 L 677.5 2430.500008583069 L 677.5 2430.500008583069 A 8 8 0 0 1 669.5 2438.500008583069 L -69.5 2438.500008583069 L -69.5 2438.500008583069 A 8 8 0 0 1 -77.5 2430.500008583069 L -77.5 1230.5000035762787 L -77.5 1230.5000035762787 A 8 8 0 0 1 -69.5 1222.5000035762787 L 300 1222.5000035762787 Z" fill-opacity="1" stroke-opacity="1" stroke-miterlimit="10"/><text fill="rgb(0,0,0)" stroke="none" font-family="Avenir, Helvetica, Arial, sans-serif" font-size="32px" font-style="normal" font-weight="bold" text-decoration="normal" x="300" y="1297.5000035762787" text-anchor="middle" dominant-baseline="text-after-edge" fill-opacity="1">variables.tf</text><path fill="rgb(255,255,255)" stroke="rgb(211,211,211)" paint-order="fill stroke markers" d=" M 1403.0000007152557 156 L 1828.5000007152557 156 L 1828.5000007152557 156 A 8 8 0 0 1 1836.5000007152557 164 L 1836.5000007152557 918.7000007152558 L 1836.5000007152557 918.7000007152558 A 8 8 0 0 1 1828.5000007152557 926.7000007152558 L 977.5000007152557 926.7000007152558 L 977.5000007152557 926.7000007152558 A 8 8 0 0 1 969.5000007152557 918.7000007152558 L 969.5000007152557 164 L 969.5000007152557 164 A 8 8 0 0 1 977.5000007152557 156 L 1403.0000007152557 156 Z" fill-opacity="1" stroke-opacity="1" stroke-miterlimit="10"/><text fill="rgb(0,0,0)" stroke="none" font-family="Avenir, Helvetica, Arial, sans-serif" font-size="32px" font-style="normal" font-weight="bold" text-decoration="normal" x="1403.0000007152557" y="231" text-anchor="middle" dominant-baseline="text-after-edge" fill-opacity="1">main.tf</text><path fill="rgb(255,255,255)" stroke="rgb(0,0,0)" paint-order="fill stroke markers" d=" M 1403.0000007152557 305 L 1725.0000007152557 305 L 1725.0000007152557 305 A 8 8 0 0 1 1733.0000007152557 313 L 1733.0000007152557 487 L 1733.0000007152557 487 A 8 8 0 0 1 1725.0000007152557 495 L 1081.0000007152557 495 L 1081.0000007152557 495 A 8 8 0 0 1 1073.0000007152557 487 L 1073.0000007152557 313 L 1073.0000007152557 313 A 8 8 0 0 1 1081.0000007152557 305 L 1403.0000007152557 305 Z" fill-opacity="1" stroke-opacity="1" stroke-miterlimit="10" stroke-width="5"/><rect fill="rgb(255,255,255)" stroke="none" x="1180.5000007152557" y="256" width="445" height="96" fill-opacity="1"/><text fill="rgb(0,0,0)" stroke="none" font-family="Avenir, Helvetica, Arial, sans-serif" font-size="32px" font-style="normal" font-weight="bold" text-decoration="normal" x="1403.0000007152557" y="320" text-anchor="middle" dominant-baseline="text-after-edge" fill-opacity="1">hcloud_network_subnet</text><path fill="rgb(255,255,255)" stroke="rgb(0,0,0)" paint-order="fill stroke markers" d=" M 1403.0000007152557 633.2000007152558 L 1725.0000007152557 633.2000007152558 L 1725.0000007152557 633.2000007152558 A 8 8 0 0 1 1733.0000007152557 641.2000007152558 L 1733.0000007152557 815.2000007152558 L 1733.0000007152557 815.2000007152558 A 8 8 0 0 1 1725.0000007152557 823.2000007152558 L 1081.0000007152557 823.2000007152558 L 1081.0000007152557 823.2000007152558 A 8 8 0 0 1 1073.0000007152557 815.2000007152558 L 1073.0000007152557 641.2000007152558 L 1073.0000007152557 641.2000007152558 A 8 8 0 0 1 1081.0000007152557 633.2000007152558 L 1403.0000007152557 633.2000007152558 Z" fill-opacity="1" stroke-opacity="1" stroke-miterlimit="10" stroke-width="5"/><rect fill="rgb(255,255,255)" stroke="none" x="1242.5000007152557" y="584.2000007152558" width="321" height="96" fill-opacity="1"/><text fill="rgb(0,0,0)" stroke="none" font-family="Avenir, Helvetica, Arial, sans-serif" font-size="32px" font-style="normal" font-weight="bold" text-decoration="normal" x="1403.0000007152557" y="648.2000007152558" text-anchor="middle" dominant-baseline="text-after-edge" fill-opacity="1">hcloud_network</text><path fill="none" stroke="url(#xhODTCSTJlcS)" paint-order="fill stroke markers" d=" M 1403.0000007152557 439 L 1403.0000007152557 1147.2500032186508 L 300 1147.2500032186508 L 300 1855.5000064373016" stroke-linejoin="round" stroke-miterlimit="10" stroke-width="10"/><path fill="none" stroke="url(#lGAazrTQgLAR)" paint-order="fill stroke markers" d=" M 1403.0000007152557 439 L 1403.0000007152557 564.1000003576279 L 1403.0000007152557 564.1000003576279 L 1403.0000007152557 689.2000007152558" stroke-linejoin="round" stroke-miterlimit="10" stroke-width="10"/><path fill="none" stroke="url(#lhUHlQEuFcnq)" paint-order="fill stroke markers" d=" M 1403.0000007152557 439 L 1403.0000007152557 1213.7500035762787 L 300 1213.7500035762787 L 300 1988.5000071525574" stroke-linejoin="round" stroke-miterlimit="10" stroke-width="10"/><path fill="none" stroke="url(#kgezfPdntfAl)" paint-order="fill stroke markers" d=" M 1403.0000007152557 439 L 1403.0000007152557 1080.750002861023 L 300 1080.750002861023 L 300 1722.500005722046" stroke-linejoin="round" stroke-miterlimit="10" stroke-width="10"/><path fill="none" stroke="url(#BvRLESboGaOd)" paint-order="fill stroke markers" d=" M 1403.0000007152557 439 L 1403.0000007152557 1280.2500039339066 L 300 1280.2500039339066 L 300 2121.500007867813" stroke-linejoin="round" stroke-miterlimit="10" stroke-width="10"/><path fill="none" stroke="url(#ZAbPEsCVofhE)" paint-order="fill stroke markers" d=" M 1403.0000007152557 767.2000007152558 L 1403.0000007152557 1178.3500028610229 L 300 1178.3500028610229 L 300 1589.5000050067902" stroke-linejoin="round" stroke-miterlimit="10" stroke-width="10"/><path fill="none" stroke="url(#GsXaNmcmrMBo)" paint-order="fill stroke markers" d=" M 1403.0000007152557 767.2000007152558 L 1403.0000007152557 1045.3500021457671 L 300 1045.3500021457671 L 300 1323.5000035762787" stroke-linejoin="round" stroke-miterlimit="10" stroke-width="10"/><path fill="none" stroke="url(#oEEuhCNplnrn)" paint-order="fill stroke markers" d=" M 1403.0000007152557 767.2000007152558 L 1403.0000007152557 1111.850002503395 L 300 1111.850002503395 L 300 1456.5000042915344" stroke-linejoin="round" stroke-miterlimit="10" stroke-width="10"/><path fill="none" stroke="url(#EviQSwzafQwN)" paint-order="fill stroke markers" d=" M 1403.0000007152557 767.2000007152558 L 1403.0000007152557 1510.8500046491622 L 300 1510.8500046491622 L 300 2254.500008583069" stroke-linejoin="round" stroke-miterlimit="10" stroke-width="10"/><path fill="none" stroke="url(#CPfyVUuWAfKO)" paint-order="fill stroke markers" d=" M 576.5 300 L 852.7500003576279 300 L 852.7500003576279 728.2000007152558 L 1129.0000007152557 728.2000007152558" stroke-linejoin="round" stroke-miterlimit="10" stroke-width="10"/><path fill="none" stroke="url(#yELHVclyNNxy)" paint-order="fill stroke markers" d=" M 576.5 433.00000071525574 L 852.7500003576279 433.00000071525574 L 852.7500003576279 728.2000007152558 L 1129.0000007152557 728.2000007152558" stroke-linejoin="round" stroke-miterlimit="10" stroke-width="10"/><path fill="none" stroke="url(#ubCupoXTSKfB)" paint-order="fill stroke markers" d=" M 576.5 566.0000014305115 L 852.7500003576279 566.0000014305115 L 852.7500003576279 728.2000007152558 L 1129.0000007152557 728.2000007152558" stroke-linejoin="round" stroke-miterlimit="10" stroke-width="10"/><path fill="none" stroke="url(#pKoGXxeUnDGA)" paint-order="fill stroke markers" d=" M 576.5 699.0000021457672 L 852.7500003576279 699.0000021457672 L 852.7500003576279 400 L 1129.0000007152557 400" stroke-linejoin="round" stroke-miterlimit="10" stroke-width="10"/><path fill="none" stroke="url(#ArnGWmdikyDV)" paint-order="fill stroke markers" d=" M 576.5 832.000002861023 L 852.7500003576279 832.000002861023 L 852.7500003576279 400 L 1129.0000007152557 400" stroke-linejoin="round" stroke-miterlimit="10" stroke-width="10"/><path fill="rgb(255,247,224)" stroke="rgb(255,193,7)" paint-order="fill stroke markers" d=" M 300 261 L 566 261 L 566 261 A 8 8 0 0 1 574 269 L 574 331 L 574 331 A 8 8 0 0 1 566 339 L 34 339 L 34 339 A 8 8 0 0 1 26 331 L 26 269 L 26 269 A 8 8 0 0 1 34 261 L 300 261 Z" fill-opacity="1" stroke-opacity="1" stroke-miterlimit="10" stroke-width="5"/><text fill="rgb(0,0,0)" stroke="none" font-family="Avenir, Helvetica, Arial, sans-serif" font-size="32px" font-style="normal" font-weight="bold" text-decoration="normal" x="300" y="316" text-anchor="middle" dominant-baseline="text-after-edge" fill-opacity="1">name</text><path fill="rgb(255,247,224)" stroke="rgb(255,193,7)" paint-order="fill stroke markers" d=" M 300 394.00000071525574 L 566 394.00000071525574 L 566 394.00000071525574 A 8 8 0 0 1 574 402.00000071525574 L 574 464.00000071525574 L 574 464.00000071525574 A 8 8 0 0 1 566 472.00000071525574 L 34 472.00000071525574 L 34 472.00000071525574 A 8 8 0 0 1 26 464.00000071525574 L 26 402.00000071525574 L 26 402.00000071525574 A 8 8 0 0 1 34 394.00000071525574 L 300 394.00000071525574 Z" fill-opacity="1" stroke-opacity="1" stroke-miterlimit="10" stroke-width="5"/><text fill="rgb(0,0,0)" stroke="none" font-family="Avenir, Helvetica, Arial, sans-serif" font-size="32px" font-style="normal" font-weight="bold" text-decoration="normal" x="300" y="449.00000071525574" text-anchor="middle" dominant-baseline="text-after-edge" fill-opacity="1">id_network</text><path fill="rgb(255,247,224)" stroke="rgb(255,193,7)" paint-order="fill stroke markers" d=" M 300 527.0000014305115 L 566 527.0000014305115 L 566 527.0000014305115 A 8 8 0 0 1 574 535.0000014305115 L 574 597.0000014305115 L 574 597.0000014305115 A 8 8 0 0 1 566 605.0000014305115 L 34 605.0000014305115 L 34 605.0000014305115 A 8 8 0 0 1 26 597.0000014305115 L 26 535.0000014305115 L 26 535.0000014305115 A 8 8 0 0 1 34 527.0000014305115 L 300 527.0000014305115 Z" fill-opacity="1" stroke-opacity="1" stroke-miterlimit="10" stroke-width="5"/><text fill="rgb(0,0,0)" stroke="none" font-family="Avenir, Helvetica, Arial, sans-serif" font-size="32px" font-style="normal" font-weight="bold" text-decoration="normal" x="300" y="582.0000014305115" text-anchor="middle" dominant-baseline="text-after-edge" fill-opacity="1">ip_range_network</text><path fill="rgb(255,247,224)" stroke="rgb(255,193,7)" paint-order="fill stroke markers" d=" M 300 660.0000021457672 L 566 660.0000021457672 L 566 660.0000021457672 A 8 8 0 0 1 574 668.0000021457672 L 574 730.0000021457672 L 574 730.0000021457672 A 8 8 0 0 1 566 738.0000021457672 L 34 738.0000021457672 L 34 738.0000021457672 A 8 8 0 0 1 26 730.0000021457672 L 26 668.0000021457672 L 26 668.0000021457672 A 8 8 0 0 1 34 660.0000021457672 L 300 660.0000021457672 Z" fill-opacity="1" stroke-opacity="1" stroke-miterlimit="10" stroke-width="5"/><text fill="rgb(0,0,0)" stroke="none" font-family="Avenir, Helvetica, Arial, sans-serif" font-size="32px" font-style="normal" font-weight="bold" text-decoration="normal" x="300" y="715.0000021457672" text-anchor="middle" dominant-baseline="text-after-edge" fill-opacity="1">id_subnet</text><path fill="rgb(255,247,224)" stroke="rgb(255,193,7)" paint-order="fill stroke markers" d=" M 300 793.000002861023 L 566 793.000002861023 L 566 793.000002861023 A 8 8 0 0 1 574 801.000002861023 L 574 863.000002861023 L 574 863.000002861023 A 8 8 0 0 1 566 871.000002861023 L 34 871.000002861023 L 34 871.000002861023 A 8 8 0 0 1 26 863.000002861023 L 26 801.000002861023 L 26 801.000002861023 A 8 8 0 0 1 34 793.000002861023 L 300 793.000002861023 Z" fill-opacity="1" stroke-opacity="1" stroke-miterlimit="10" stroke-width="5"/><text fill="rgb(0,0,0)" stroke="none" font-family="Avenir, Helvetica, Arial, sans-serif" font-size="32px" font-style="normal" font-weight="bold" text-decoration="normal" x="300" y="848.000002861023" text-anchor="middle" dominant-baseline="text-after-edge" fill-opacity="1">ip_range_subnet</text><path fill="rgb(225,240,255)" stroke="rgb(29,122,218)" paint-order="fill stroke markers" d=" M 300 1326.0000035762787 L 566 1326.0000035762787 L 566 1326.0000035762787 A 8 8 0 0 1 574 1334.0000035762787 L 574 1396.0000035762787 L 574 1396.0000035762787 A 8 8 0 0 1 566 1404.0000035762787 L 34 1404.0000035762787 L 34 1404.0000035762787 A 8 8 0 0 1 26 1396.0000035762787 L 26 1334.0000035762787 L 26 1334.0000035762787 A 8 8 0 0 1 34 1326.0000035762787 L 300 1326.0000035762787 Z" fill-opacity="1" stroke-opacity="1" stroke-miterlimit="10" stroke-width="5"/><text fill="rgb(0,0,0)" stroke="none" font-family="Avenir, Helvetica, Arial, sans-serif" font-size="32px" font-style="normal" font-weight="bold" text-decoration="normal" x="300" y="1381.0000035762787" text-anchor="middle" dominant-baseline="text-after-edge" fill-opacity="1">ip_range_network</text><path fill="rgb(225,240,255)" stroke="rgb(29,122,218)" paint-order="fill stroke markers" d=" M 300 1459.0000042915344 L 566 1459.0000042915344 L 566 1459.0000042915344 A 8 8 0 0 1 574 1467.0000042915344 L 574 1529.0000042915344 L 574 1529.0000042915344 A 8 8 0 0 1 566 1537.0000042915344 L 34 1537.0000042915344 L 34 1537.0000042915344 A 8 8 0 0 1 26 1529.0000042915344 L 26 1467.0000042915344 L 26 1467.0000042915344 A 8 8 0 0 1 34 1459.0000042915344 L 300 1459.0000042915344 Z" fill-opacity="1" stroke-opacity="1" stroke-miterlimit="10" stroke-width="5"/><text fill="rgb(0,0,0)" stroke="none" font-family="Avenir, Helvetica, Arial, sans-serif" font-size="32px" font-style="normal" font-weight="bold" text-decoration="normal" x="300" y="1514.0000042915344" text-anchor="middle" dominant-baseline="text-after-edge" fill-opacity="1">labels</text><path fill="rgb(225,240,255)" stroke="rgb(29,122,218)" paint-order="fill stroke markers" d=" M 300 1592.0000050067902 L 566 1592.0000050067902 L 566 1592.0000050067902 A 8 8 0 0 1 574 1600.0000050067902 L 574 1662.0000050067902 L 574 1662.0000050067902 A 8 8 0 0 1 566 1670.0000050067902 L 34 1670.0000050067902 L 34 1670.0000050067902 A 8 8 0 0 1 26 1662.0000050067902 L 26 1600.0000050067902 L 26 1600.0000050067902 A 8 8 0 0 1 34 1592.0000050067902 L 300 1592.0000050067902 Z" fill-opacity="1" stroke-opacity="1" stroke-miterlimit="10" stroke-width="5"/><text fill="rgb(0,0,0)" stroke="none" font-family="Avenir, Helvetica, Arial, sans-serif" font-size="32px" font-style="normal" font-weight="bold" text-decoration="normal" x="300" y="1647.0000050067902" text-anchor="middle" dominant-baseline="text-after-edge" fill-opacity="1">delete_protection</text><path fill="rgb(225,240,255)" stroke="rgb(29,122,218)" paint-order="fill stroke markers" d=" M 300 1725.000005722046 L 566 1725.000005722046 L 566 1725.000005722046 A 8 8 0 0 1 574 1733.000005722046 L 574 1795.000005722046 L 574 1795.000005722046 A 8 8 0 0 1 566 1803.000005722046 L 34 1803.000005722046 L 34 1803.000005722046 A 8 8 0 0 1 26 1795.000005722046 L 26 1733.000005722046 L 26 1733.000005722046 A 8 8 0 0 1 34 1725.000005722046 L 300 1725.000005722046 Z" fill-opacity="1" stroke-opacity="1" stroke-miterlimit="10" stroke-width="5"/><text fill="rgb(0,0,0)" stroke="none" font-family="Avenir, Helvetica, Arial, sans-serif" font-size="32px" font-style="normal" font-weight="bold" text-decoration="normal" x="300" y="1780.000005722046" text-anchor="middle" dominant-baseline="text-after-edge" fill-opacity="1">type</text><path fill="rgb(225,240,255)" stroke="rgb(29,122,218)" paint-order="fill stroke markers" d=" M 300 1858.0000064373016 L 566 1858.0000064373016 L 566 1858.0000064373016 A 8 8 0 0 1 574 1866.0000064373016 L 574 1928.0000064373016 L 574 1928.0000064373016 A 8 8 0 0 1 566 1936.0000064373016 L 34 1936.0000064373016 L 34 1936.0000064373016 A 8 8 0 0 1 26 1928.0000064373016 L 26 1866.0000064373016 L 26 1866.0000064373016 A 8 8 0 0 1 34 1858.0000064373016 L 300 1858.0000064373016 Z" fill-opacity="1" stroke-opacity="1" stroke-miterlimit="10" stroke-width="5"/><text fill="rgb(0,0,0)" stroke="none" font-family="Avenir, Helvetica, Arial, sans-serif" font-size="32px" font-style="normal" font-weight="bold" text-decoration="normal" x="300" y="1913.0000064373016" text-anchor="middle" dominant-baseline="text-after-edge" fill-opacity="1">ip_range_subnet</text><path fill="rgb(225,240,255)" stroke="rgb(29,122,218)" paint-order="fill stroke markers" d=" M 300 1991.0000071525574 L 566 1991.0000071525574 L 566 1991.0000071525574 A 8 8 0 0 1 574 1999.0000071525574 L 574 2061.0000071525574 L 574 2061.0000071525574 A 8 8 0 0 1 566 2069.0000071525574 L 34 2069.0000071525574 L 34 2069.0000071525574 A 8 8 0 0 1 26 2061.0000071525574 L 26 1999.0000071525574 L 26 1999.0000071525574 A 8 8 0 0 1 34 1991.0000071525574 L 300 1991.0000071525574 Z" fill-opacity="1" stroke-opacity="1" stroke-miterlimit="10" stroke-width="5"/><text fill="rgb(0,0,0)" stroke="none" font-family="Avenir, Helvetica, Arial, sans-serif" font-size="32px" font-style="normal" font-weight="bold" text-decoration="normal" x="300" y="2046.0000071525574" text-anchor="middle" dominant-baseline="text-after-edge" fill-opacity="1">network_zone</text><path fill="rgb(225,240,255)" stroke="rgb(29,122,218)" paint-order="fill stroke markers" d=" M 300 2124.000007867813 L 566 2124.000007867813 L 566 2124.000007867813 A 8 8 0 0 1 574 2132.000007867813 L 574 2194.000007867813 L 574 2194.000007867813 A 8 8 0 0 1 566 2202.000007867813 L 34 2202.000007867813 L 34 2202.000007867813 A 8 8 0 0 1 26 2194.000007867813 L 26 2132.000007867813 L 26 2132.000007867813 A 8 8 0 0 1 34 2124.000007867813 L 300 2124.000007867813 Z" fill-opacity="1" stroke-opacity="1" stroke-miterlimit="10" stroke-width="5"/><text fill="rgb(0,0,0)" stroke="none" font-family="Avenir, Helvetica, Arial, sans-serif" font-size="32px" font-style="normal" font-weight="bold" text-decoration="normal" x="300" y="2179.000007867813" text-anchor="middle" dominant-baseline="text-after-edge" fill-opacity="1">vswitch_id</text><path fill="rgb(225,240,255)" stroke="rgb(29,122,218)" paint-order="fill stroke markers" d=" M 300 2257.000008583069 L 566 2257.000008583069 L 566 2257.000008583069 A 8 8 0 0 1 574 2265.000008583069 L 574 2327.000008583069 L 574 2327.000008583069 A 8 8 0 0 1 566 2335.000008583069 L 34 2335.000008583069 L 34 2335.000008583069 A 8 8 0 0 1 26 2327.000008583069 L 26 2265.000008583069 L 26 2265.000008583069 A 8 8 0 0 1 34 2257.000008583069 L 300 2257.000008583069 Z" fill-opacity="1" stroke-opacity="1" stroke-miterlimit="10" stroke-width="5"/><text fill="rgb(0,0,0)" stroke="none" font-family="Avenir, Helvetica, Arial, sans-serif" font-size="32px" font-style="normal" font-weight="bold" text-decoration="normal" x="300" y="2312.000008583069" text-anchor="middle" dominant-baseline="text-after-edge" fill-opacity="1">name</text><path fill="rgb(40,167,69)" stroke="none" paint-order="stroke fill markers" d=" M 1403.0000007152557 361 L 1669.0000007152557 361 L 1669.0000007152557 361 A 8 8 0 0 1 1677.0000007152557 369 L 1677.0000007152557 431 L 1677.0000007152557 431 A 8 8 0 0 1 1669.0000007152557 439 L 1137.0000007152557 439 L 1137.0000007152557 439 A 8 8 0 0 1 1129.0000007152557 431 L 1129.0000007152557 369 L 1129.0000007152557 369 A 8 8 0 0 1 1137.0000007152557 361 L 1403.0000007152557 361 Z" fill-opacity="1"/><text fill="rgb(255,255,255)" stroke="none" font-family="Avenir, Helvetica, Arial, sans-serif" font-size="32px" font-style="normal" font-weight="bold" text-decoration="normal" x="1403.0000007152557" y="416" text-anchor="middle" dominant-baseline="text-after-edge" fill-opacity="1">default</text><path fill="rgb(40,167,69)" stroke="none" paint-order="stroke fill markers" d=" M 1403.0000007152557 689.2000007152558 L 1669.0000007152557 689.2000007152558 L 1669.0000007152557 689.2000007152558 A 8 8 0 0 1 1677.0000007152557 697.2000007152558 L 1677.0000007152557 759.2000007152558 L 1677.0000007152557 759.2000007152558 A 8 8 0 0 1 1669.0000007152557 767.2000007152558 L 1137.0000007152557 767.2000007152558 L 1137.0000007152557 767.2000007152558 A 8 8 0 0 1 1129.0000007152557 759.2000007152558 L 1129.0000007152557 697.2000007152558 L 1129.0000007152557 697.2000007152558 A 8 8 0 0 1 1137.0000007152557 689.2000007152558 L 1403.0000007152557 689.2000007152558 Z" fill-opacity="1"/><text fill="rgb(255,255,255)" stroke="none" font-family="Avenir, Helvetica, Arial, sans-serif" font-size="32px" font-style="normal" font-weight="bold" text-decoration="normal" x="1403.0000007152557" y="744.2000007152558" text-anchor="middle" dominant-baseline="text-after-edge" fill-opacity="1">default</text><g transform="scale(10,10) translate(-28.1,-4.75)"/></g></svg>