<svg version="1.1" xmlns="http://www.w3.org/2000/svg" xmlns:xlink="http://www.w3.org/1999/xlink" width="216.60000000000002" height="281.1"><defs><linearGradient id="mLSJMhkbdcww" x1="300px" x2="400px" y1="607.5000014305115px" y2="1825.000005722046px" gradientUnits="userSpaceOnUse"><stop offset="0" stop-color="rgb(255,193,7)" stop-opacity="1"/><stop offset="1" stop-color="rgb(211,211,211)" stop-opacity="1"/></linearGradient><linearGradient id="oLOvmorlypgg" x1="300px" x2="400px" y1="740.5000021457672px" y2="1825.000005722046px" gradientUnits="userSpaceOnUse"><stop offset="0" stop-color="rgb(255,193,7)" stop-opacity="1"/><stop offset="1" stop-color="rgb(211,211,211)" stop-opacity="1"/></linearGradient><linearGradient id="DCPTMtdRTyLa" x1="300px" x2="500px" y1="873.500002861023px" y2="2194.7000064373015px" gradientUnits="userSpaceOnUse"><stop offset="0" stop-color="rgb(255,193,7)" stop-opacity="1"/><stop offset="1" stop-color="rgb(211,211,211)" stop-opacity="1"/></linearGradient><linearGradient id="SlhpJakomhyT" x1="300px" x2="500px" y1="341.5px" y2="2194.7000064373015px" gradientUnits="userSpaceOnUse"><stop offset="0" stop-color="rgb(255,193,7)" stop-opacity="1"/><stop offset="1" stop-color="rgb(211,211,211)" stop-opacity="1"/></linearGradient><linearGradient id="aTAQuDlPVEhk" x1="300px" x2="400px" y1="474.50000071525574px" y2="1825.000005722046px" gradientUnits="userSpaceOnUse"><stop offset="0" stop-color="rgb(255,193,7)" stop-opacity="1"/><stop offset="1" stop-color="rgb(211,211,211)" stop-opacity="1"/></linearGradient><linearGradient id="TArkNrLTQCve" x1="400px" x2="1303.0000007152557px" y1="1825.000005722046px" y2="1006.5000035762787px" gradientUnits="userSpaceOnUse"><stop offset="0" stop-color="rgb(211,211,211)" stop-opacity="1"/><stop offset="1" stop-color="rgb(29,122,218)" stop-opacity="1"/></linearGradient><linearGradient id="HifPALJJitJl" x1="400px" x2="1303.0000007152557px" y1="1825.000005722046px" y2="740.5000021457672px" gradientUnits="userSpaceOnUse"><stop offset="0" stop-color="rgb(211,211,211)" stop-opacity="1"/><stop offset="1" stop-color="rgb(29,122,218)" stop-opacity="1"/></linearGradient><linearGradient id="FqiacoOyGEgO" x1="400px" x2="1303.0000007152557px" y1="1825.000005722046px" y2="873.500002861023px" gradientUnits="userSpaceOnUse"><stop offset="0" stop-color="rgb(211,211,211)" stop-opacity="1"/><stop offset="1" stop-color="rgb(29,122,218)" stop-opacity="1"/></linearGradient><linearGradient id="zGnFKEWitfxO" x1="400px" x2="1303.0000007152557px" y1="1825.000005722046px" y2="607.5000014305115px" gradientUnits="userSpaceOnUse"><stop offset="0" stop-color="rgb(211,211,211)" stop-opacity="1"/><stop offset="1" stop-color="rgb(29,122,218)" stop-opacity="1"/></linearGradient><linearGradient id="PTKFMFfWzgGS" x1="500px" x2="400px" y1="2194.7000064373015px" y2="1903.000005722046px" gradientUnits="userSpaceOnUse"><stop offset="0" stop-color="rgb(211,211,211)" stop-opacity="1"/><stop offset="1" stop-color="rgb(211,211,211)" stop-opacity="1"/></linearGradient><linearGradient id="XldUchdNlqhq" x1="500px" x2="1303.0000007152557px" y1="2194.7000064373015px" y2="341.5px" gradientUnits="userSpaceOnUse"><stop offset="0" stop-color="rgb(211,211,211)" stop-opacity="1"/><stop offset="1" stop-color="rgb(29,122,218)" stop-opacity="1"/></linearGradient><linearGradient id="tZHZxODAiRzR" x1="500px" x2="1303.0000007152557px" y1="2194.7000064373015px" y2="1139.5000042915344px" gradientUnits="userSpaceOnUse"><stop offset="0" stop-color="rgb(211,211,211)" stop-opacity="1"/><stop offset="1" stop-color="rgb(29,122,218)" stop-opacity="1"/></linearGradient><linearGradient id="iIOLmnulQWNK" x1="500px" x2="1303.0000007152557px" y1="2194.7000064373015px" y2="474.50000071525574px" gradientUnits="userSpaceOnUse"><stop offset="0" stop-color="rgb(211,211,211)" stop-opacity="1"/><stop offset="1" stop-color="rgb(29,122,218)" stop-opacity="1"/></linearGradient></defs><g transform="translate(28.1,4.6000000000000005) scale(0.1,0.1)"><path fill="rgb(244,236,255)" stroke="rgb(255,255,255)" paint-order="fill stroke markers" d=" M 801.5000003576279 -44 L 1874.0000007152557 -44 L 1874.0000007152557 -44 A 8 8 0 0 1 1882.0000007152557 -36 L 1882.0000007152557 2754.4000064373013 L 1882.0000007152557 2754.4000064373013 A 8 8 0 0 1 1874.0000007152557 2762.4000064373013 L -271 2762.4000064373013 L -271 2762.4000064373013 A 8 8 0 0 1 -279 2754.4000064373013 L -279 -36 L -279 -36 A 8 8 0 0 1 -271 -44 L 801.5000003576279 -44 Z" fill-opacity="1" stroke-opacity="1" stroke-miterlimit="10" stroke-width="2"/><text fill="rgb(0,0,0)" stroke="none" font-family="Avenir, Helvetica, Arial, sans-serif" font-size="32px" font-style="normal" font-weight="bold" text-decoration="normal" x="801.5000003576279" y="31" text-anchor="middle" dominant-baseline="text-after-edge" fill-opacity="1">.</text><path fill="rgb(255,255,255)" stroke="rgb(211,211,211)" paint-order="fill stroke markers" d=" M 300 157.5 L 669.5 157.5 L 669.5 157.5 A 8 8 0 0 1 677.5 165.5 L 677.5 966.500002861023 L 677.5 966.500002861023 A 8 8 0 0 1 669.5 974.500002861023 L -69.5 974.500002861023 L -69.5 974.500002861023 A 8 8 0 0 1 -77.5 966.500002861023 L -77.5 165.5 L -77.5 165.5 A 8 8 0 0 1 -69.5 157.5 L 300 157.5 Z" fill-opacity="1" stroke-opacity="1" stroke-miterlimit="10"/><text fill="rgb(0,0,0)" stroke="none" font-family="Avenir, Helvetica, Arial, sans-serif" font-size="32px" font-style="normal" font-weight="bold" text-decoration="normal" x="300" y="232.5" text-anchor="middle" dominant-baseline="text-after-edge" fill-opacity="1">outputs.tf</text><path fill="rgb(255,255,255)" stroke="rgb(211,211,211)" paint-order="fill stroke markers" d=" M 1303.0000007152557 157.5 L 1672.5000007152557 157.5 L 1672.5000007152557 157.5 A 8 8 0 0 1 1680.5000007152557 165.5 L 1680.5000007152557 1365.5000050067902 L 1680.5000007152557 1365.5000050067902 A 8 8 0 0 1 1672.5000007152557 1373.5000050067902 L 933.5000007152557 1373.5000050067902 L 933.5000007152557 1373.5000050067902 A 8 8 0 0 1 925.5000007152557 1365.5000050067902 L 925.5000007152557 165.5 L 925.5000007152557 165.5 A 8 8 0 0 1 933.5000007152557 157.5 L 1303.0000007152557 157.5 Z" fill-opacity="1" stroke-opacity="1" stroke-miterlimit="10"/><text fill="rgb(0,0,0)" stroke="none" font-family="Avenir, Helvetica, Arial, sans-serif" font-size="32px" font-style="normal" font-weight="bold" text-decoration="normal" x="1303.0000007152557" y="232.5" text-anchor="middle" dominant-baseline="text-after-edge" fill-opacity="1">variables.tf</text><path fill="rgb(255,255,255)" stroke="rgb(211,211,211)" paint-order="fill stroke markers" d=" M 485.1 1620.000005722046 L 995.7 1620.000005722046 L 995.7 1620.000005722046 A 8 8 0 0 1 1003.7 1628.000005722046 L 1003.7 2552.9000064373013 L 1003.7 2552.9000064373013 A 8 8 0 0 1 995.7 2560.9000064373013 L -25.5 2560.9000064373013 L -25.5 2560.9000064373013 A 8 8 0 0 1 -33.5 2552.9000064373013 L -33.5 1628.000005722046 L -33.5 1628.000005722046 A 8 8 0 0 1 -25.5 1620.000005722046 L 485.1 1620.000005722046 Z" fill-opacity="1" stroke-opacity="1" stroke-miterlimit="10"/><text fill="rgb(0,0,0)" stroke="none" font-family="Avenir, Helvetica, Arial, sans-serif" font-size="32px" font-style="normal" font-weight="bold" text-decoration="normal" x="485.1" y="1695.000005722046" text-anchor="middle" dominant-baseline="text-after-edge" fill-opacity="1">main.tf</text><path fill="rgb(255,255,255)" stroke="rgb(0,0,0)" paint-order="fill stroke markers" d=" M 400 1769.000005722046 L 722 1769.000005722046 L 722 1769.000005722046 A 8 8 0 0 1 730 1777.000005722046 L 730 1951.000005722046 L 730 1951.000005722046 A 8 8 0 0 1 722 1959.000005722046 L 78 1959.000005722046 L 78 1959.000005722046 A 8 8 0 0 1 70 1951.000005722046 L 70 1777.000005722046 L 70 1777.000005722046 A 8 8 0 0 1 78 1769.000005722046 L 400 1769.000005722046 Z" fill-opacity="1" stroke-opacity="1" stroke-miterlimit="10" stroke-width="5"/><rect fill="rgb(255,255,255)" stroke="none" x="239.5" y="1720.000005722046" width="321" height="96" fill-opacity="1"/><text fill="rgb(0,0,0)" stroke="none" font-family="Avenir, Helvetica, Arial, sans-serif" font-size="32px" font-style="normal" font-weight="bold" text-decoration="normal" x="400" y="1784.000005722046" text-anchor="middle" dominant-baseline="text-after-edge" fill-opacity="1">hcloud_network</text><path fill="rgb(255,255,255)" stroke="rgb(0,0,0)" paint-order="fill stroke markers" d=" M 500 2081.5000064373016 L 892.2 2081.5000064373016 L 892.2 2081.5000064373016 A 8 8 0 0 1 900.2 2089.5000064373016 L 900.2 2449.4000064373013 L 900.2 2449.4000064373013 A 8 8 0 0 1 892.2 2457.4000064373013 L 107.80000000000001 2457.4000064373013 L 107.80000000000001 2457.4000064373013 A 8 8 0 0 1 99.80000000000001 2449.4000064373013 L 99.80000000000001 2089.5000064373016 L 99.80000000000001 2089.5000064373016 A 8 8 0 0 1 107.80000000000001 2081.5000064373016 L 500 2081.5000064373016 Z" fill-opacity="1" stroke-opacity="1" stroke-miterlimit="10" stroke-width="5"/><rect fill="rgb(255,255,255)" stroke="none" x="277.5" y="2032.5000064373016" width="445" height="96" fill-opacity="1"/><text fill="rgb(0,0,0)" stroke="none" font-family="Avenir, Helvetica, Arial, sans-serif" font-size="32px" font-style="normal" font-weight="bold" text-decoration="normal" x="500" y="2096.5000064373016" text-anchor="middle" dominant-baseline="text-after-edge" fill-opacity="1">hcloud_network_subnet</text><path fill="rgb(255,255,255)" stroke="rgb(0,0,0)" paint-order="fill stroke markers" d=" M 500 2197.2000064373015 L 822 2197.2000064373015 L 822 2197.2000064373015 A 8 8 0 0 1 830 2205.2000064373015 L 830 2379.2000064373015 L 830 2379.2000064373015 A 8 8 0 0 1 822 2387.2000064373015 L 178 2387.2000064373015 L 178 2387.2000064373015 A 8 8 0 0 1 170 2379.2000064373015 L 170 2205.2000064373015 L 170 2205.2000064373015 A 8 8 0 0 1 178 2197.2000064373015 L 500 2197.2000064373015 Z" fill-opacity="1" stroke-opacity="1" stroke-miterlimit="10" stroke-width="5"/><rect fill="rgb(255,255,255)" stroke="none" x="410" y="2148.2000064373015" width="180" height="96" fill-opacity="1"/><text fill="rgb(0,0,0)" stroke="none" font-family="Avenir, Helvetica, Arial, sans-serif" font-size="32px" font-style="normal" font-weight="bold" text-decoration="normal" x="500" y="2212.2000064373015" text-anchor="middle" dominant-baseline="text-after-edge" fill-opacity="1">default</text><path fill="none" stroke="url(#mLSJMhkbdcww)" paint-order="fill stroke markers" d=" M 300 607.5000014305115 L 300 1216.2500035762787 L 400 1216.2500035762787 L 400 1825.000005722046" stroke-linejoin="round" stroke-miterlimit="10" stroke-width="10"/><path fill="none" stroke="url(#oLOvmorlypgg)" paint-order="fill stroke markers" d=" M 300 740.5000021457672 L 300 1282.7500039339066 L 400 1282.7500039339066 L 400 1825.000005722046" stroke-linejoin="round" stroke-miterlimit="10" stroke-width="10"/><path fill="none" stroke="url(#DCPTMtdRTyLa)" paint-order="fill stroke markers" d=" M 300 873.500002861023 L 300 1534.1000046491622 L 500 1534.1000046491622 L 500 2194.7000064373015" stroke-linejoin="round" stroke-miterlimit="10" stroke-width="10"/><path fill="none" stroke="url(#SlhpJakomhyT)" paint-order="fill stroke markers" d=" M 300 341.5 L 300 1268.1000032186507 L 500 1268.1000032186507 L 500 2194.7000064373015" stroke-linejoin="round" stroke-miterlimit="10" stroke-width="10"/><path fill="none" stroke="url(#aTAQuDlPVEhk)" paint-order="fill stroke markers" d=" M 300 474.50000071525574 L 300 1149.7500032186508 L 400 1149.7500032186508 L 400 1825.000005722046" stroke-linejoin="round" stroke-miterlimit="10" stroke-width="10"/><path fill="none" stroke="url(#TArkNrLTQCve)" paint-order="fill stroke markers" d=" M 400 1825.000005722046 L 400 1415.7500046491623 L 1303.0000007152557 1415.7500046491623 L 1303.0000007152557 1006.5000035762787" stroke-linejoin="round" stroke-miterlimit="10" stroke-width="10"/><path fill="none" stroke="url(#HifPALJJitJl)" paint-order="fill stroke markers" d=" M 400 1825.000005722046 L 400 1282.7500039339066 L 1303.0000007152557 1282.7500039339066 L 1303.0000007152557 740.5000021457672" stroke-linejoin="round" stroke-miterlimit="10" stroke-width="10"/><path fill="none" stroke="url(#FqiacoOyGEgO)" paint-order="fill stroke markers" d=" M 400 1825.000005722046 L 400 1349.2500042915344 L 1303.0000007152557 1349.2500042915344 L 1303.0000007152557 873.500002861023" stroke-linejoin="round" stroke-miterlimit="10" stroke-width="10"/><path fill="none" stroke="url(#zGnFKEWitfxO)" paint-order="fill stroke markers" d=" M 400 1825.000005722046 L 400 1216.2500035762787 L 1303.0000007152557 1216.2500035762787 L 1303.0000007152557 607.5000014305115" stroke-linejoin="round" stroke-miterlimit="10" stroke-width="10"/><path fill="none" stroke="url(#PTKFMFfWzgGS)" paint-order="fill stroke markers" d=" M 500 2194.7000064373015 L 500 2048.8500060796737 L 400 2048.8500060796737 L 400 1903.000005722046" stroke-linejoin="round" stroke-miterlimit="10" stroke-width="10"/><path fill="none" stroke="url(#XldUchdNlqhq)" paint-order="fill stroke markers" d=" M 500 2194.7000064373015 L 500 1268.1000032186507 L 1303.0000007152557 1268.1000032186507 L 1303.0000007152557 341.5" stroke-linejoin="round" stroke-miterlimit="10" stroke-width="10"/><path fill="none" stroke="url(#tZHZxODAiRzR)" paint-order="fill stroke markers" d=" M 500 2194.7000064373015 L 500 1667.100005364418 L 1303.0000007152557 1667.100005364418 L 1303.0000007152557 1139.5000042915344" stroke-linejoin="round" stroke-miterlimit="10" stroke-width="10"/><path fill="none" stroke="url(#iIOLmnulQWNK)" paint-order="fill stroke markers" d=" M 500 2194.7000064373015 L 500 1334.6000035762786 L 1303.0000007152557 1334.6000035762786 L 1303.0000007152557 474.50000071525574" stroke-linejoin="round" stroke-miterlimit="10" stroke-width="10"/><path fill="rgb(255,247,224)" stroke="rgb(255,193,7)" paint-order="fill stroke markers" d=" M 300 261 L 566 261 L 566 261 A 8 8 0 0 1 574 269 L 574 331 L 574 331 A 8 8 0 0 1 566 339 L 34 339 L 34 339 A 8 8 0 0 1 26 331 L 26 269 L 26 269 A 8 8 0 0 1 34 261 L 300 261 Z" fill-opacity="1" stroke-opacity="1" stroke-miterlimit="10" stroke-width="5"/><text fill="rgb(0,0,0)" stroke="none" font-family="Avenir, Helvetica, Arial, sans-serif" font-size="32px" font-style="normal" font-weight="bold" text-decoration="normal" x="300" y="316" text-anchor="middle" dominant-baseline="text-after-edge" fill-opacity="1">ip_range_subnet</text><path fill="rgb(255,247,224)" stroke="rgb(255,193,7)" paint-order="fill stroke markers" d=" M 300 394.00000071525574 L 566 394.00000071525574 L 566 394.00000071525574 A 8 8 0 0 1 574 402.00000071525574 L 574 464.00000071525574 L 574 464.00000071525574 A 8 8 0 0 1 566 472.00000071525574 L 34 472.00000071525574 L 34 472.00000071525574 A 8 8 0 0 1 26 464.00000071525574 L 26 402.00000071525574 L 26 402.00000071525574 A 8 8 0 0 1 34 394.00000071525574 L 300 394.00000071525574 Z" fill-opacity="1" stroke-opacity="1" stroke-miterlimit="10" stroke-width="5"/><text fill="rgb(0,0,0)" stroke="none" font-family="Avenir, Helvetica, Arial, sans-serif" font-size="32px" font-style="normal" font-weight="bold" text-decoration="normal" x="300" y="449.00000071525574" text-anchor="middle" dominant-baseline="text-after-edge" fill-opacity="1">name</text><path fill="rgb(255,247,224)" stroke="rgb(255,193,7)" paint-order="fill stroke markers" d=" M 300 527.0000014305115 L 566 527.0000014305115 L 566 527.0000014305115 A 8 8 0 0 1 574 535.0000014305115 L 574 597.0000014305115 L 574 597.0000014305115 A 8 8 0 0 1 566 605.0000014305115 L 34 605.0000014305115 L 34 605.0000014305115 A 8 8 0 0 1 26 597.0000014305115 L 26 535.0000014305115 L 26 535.0000014305115 A 8 8 0 0 1 34 527.0000014305115 L 300 527.0000014305115 Z" fill-opacity="1" stroke-opacity="1" stroke-miterlimit="10" stroke-width="5"/><text fill="rgb(0,0,0)" stroke="none" font-family="Avenir, Helvetica, Arial, sans-serif" font-size="32px" font-style="normal" font-weight="bold" text-decoration="normal" x="300" y="582.0000014305115" text-anchor="middle" dominant-baseline="text-after-edge" fill-opacity="1">id_network</text><path fill="rgb(255,247,224)" stroke="rgb(255,193,7)" paint-order="fill stroke markers" d=" M 300 660.0000021457672 L 566 660.0000021457672 L 566 660.0000021457672 A 8 8 0 0 1 574 668.0000021457672 L 574 730.0000021457672 L 574 730.0000021457672 A 8 8 0 0 1 566 738.0000021457672 L 34 738.0000021457672 L 34 738.0000021457672 A 8 8 0 0 1 26 730.0000021457672 L 26 668.0000021457672 L 26 668.0000021457672 A 8 8 0 0 1 34 660.0000021457672 L 300 660.0000021457672 Z" fill-opacity="1" stroke-opacity="1" stroke-miterlimit="10" stroke-width="5"/><text fill="rgb(0,0,0)" stroke="none" font-family="Avenir, Helvetica, Arial, sans-serif" font-size="32px" font-style="normal" font-weight="bold" text-decoration="normal" x="300" y="715.0000021457672" text-anchor="middle" dominant-baseline="text-after-edge" fill-opacity="1">ip_range_network</text><path fill="rgb(255,247,224)" stroke="rgb(255,193,7)" paint-order="fill stroke markers" d=" M 300 793.000002861023 L 566 793.000002861023 L 566 793.000002861023 A 8 8 0 0 1 574 801.000002861023 L 574 863.000002861023 L 574 863.000002861023 A 8 8 0 0 1 566 871.000002861023 L 34 871.000002861023 L 34 871.000002861023 A 8 8 0 0 1 26 863.000002861023 L 26 801.000002861023 L 26 801.000002861023 A 8 8 0 0 1 34 793.000002861023 L 300 793.000002861023 Z" fill-opacity="1" stroke-opacity="1" stroke-miterlimit="10" stroke-width="5"/><text fill="rgb(0,0,0)" stroke="none" font-family="Avenir, Helvetica, Arial, sans-serif" font-size="32px" font-style="normal" font-weight="bold" text-decoration="normal" x="300" y="848.000002861023" text-anchor="middle" dominant-baseline="text-after-edge" fill-opacity="1">id_subnet</text><path fill="rgb(225,240,255)" stroke="rgb(29,122,218)" paint-order="fill stroke markers" d=" M 1303.0000007152557 261 L 1569.0000007152557 261 L 1569.0000007152557 261 A 8 8 0 0 1 1577.0000007152557 269 L 1577.0000007152557 331 L 1577.0000007152557 331 A 8 8 0 0 1 1569.0000007152557 339 L 1037.0000007152557 339 L 1037.0000007152557 339 A 8 8 0 0 1 1029.0000007152557 331 L 1029.0000007152557 269 L 1029.0000007152557 269 A 8 8 0 0 1 1037.0000007152557 261 L 1303.0000007152557 261 Z" fill-opacity="1" stroke-opacity="1" stroke-miterlimit="10" stroke-width="5"/><text fill="rgb(0,0,0)" stroke="none" font-family="Avenir, Helvetica, Arial, sans-serif" font-size="32px" font-style="normal" font-weight="bold" text-decoration="normal" x="1303.0000007152557" y="316" text-anchor="middle" dominant-baseline="text-after-edge" fill-opacity="1">network_zone</text><path fill="rgb(225,240,255)" stroke="rgb(29,122,218)" paint-order="fill stroke markers" d=" M 1303.0000007152557 394.00000071525574 L 1569.0000007152557 394.00000071525574 L 1569.0000007152557 394.00000071525574 A 8 8 0 0 1 1577.0000007152557 402.00000071525574 L 1577.0000007152557 464.00000071525574 L 1577.0000007152557 464.00000071525574 A 8 8 0 0 1 1569.0000007152557 472.00000071525574 L 1037.0000007152557 472.00000071525574 L 1037.0000007152557 472.00000071525574 A 8 8 0 0 1 1029.0000007152557 464.00000071525574 L 1029.0000007152557 402.00000071525574 L 1029.0000007152557 402.00000071525574 A 8 8 0 0 1 1037.0000007152557 394.00000071525574 L 1303.0000007152557 394.00000071525574 Z" fill-opacity="1" stroke-opacity="1" stroke-miterlimit="10" stroke-width="5"/><text fill="rgb(0,0,0)" stroke="none" font-family="Avenir, Helvetica, Arial, sans-serif" font-size="32px" font-style="normal" font-weight="bold" text-decoration="normal" x="1303.0000007152557" y="449.00000071525574" text-anchor="middle" dominant-baseline="text-after-edge" fill-opacity="1">vswitch_id</text><path fill="rgb(225,240,255)" stroke="rgb(29,122,218)" paint-order="fill stroke markers" d=" M 1303.0000007152557 527.0000014305115 L 1569.0000007152557 527.0000014305115 L 1569.0000007152557 527.0000014305115 A 8 8 0 0 1 1577.0000007152557 535.0000014305115 L 1577.0000007152557 597.0000014305115 L 1577.0000007152557 597.0000014305115 A 8 8 0 0 1 1569.0000007152557 605.0000014305115 L 1037.0000007152557 605.0000014305115 L 1037.0000007152557 605.0000014305115 A 8 8 0 0 1 1029.0000007152557 597.0000014305115 L 1029.0000007152557 535.0000014305115 L 1029.0000007152557 535.0000014305115 A 8 8 0 0 1 1037.0000007152557 527.0000014305115 L 1303.0000007152557 527.0000014305115 Z" fill-opacity="1" stroke-opacity="1" stroke-miterlimit="10" stroke-width="5"/><text fill="rgb(0,0,0)" stroke="none" font-family="Avenir, Helvetica, Arial, sans-serif" font-size="32px" font-style="normal" font-weight="bold" text-decoration="normal" x="1303.0000007152557" y="582.0000014305115" text-anchor="middle" dominant-baseline="text-after-edge" fill-opacity="1">name</text><path fill="rgb(225,240,255)" stroke="rgb(29,122,218)" paint-order="fill stroke markers" d=" M 1303.0000007152557 660.0000021457672 L 1569.0000007152557 660.0000021457672 L 1569.0000007152557 660.0000021457672 A 8 8 0 0 1 1577.0000007152557 668.0000021457672 L 1577.0000007152557 730.0000021457672 L 1577.0000007152557 730.0000021457672 A 8 8 0 0 1 1569.0000007152557 738.0000021457672 L 1037.0000007152557 738.0000021457672 L 1037.0000007152557 738.0000021457672 A 8 8 0 0 1 1029.0000007152557 730.0000021457672 L 1029.0000007152557 668.0000021457672 L 1029.0000007152557 668.0000021457672 A 8 8 0 0 1 1037.0000007152557 660.0000021457672 L 1303.0000007152557 660.0000021457672 Z" fill-opacity="1" stroke-opacity="1" stroke-miterlimit="10" stroke-width="5"/><text fill="rgb(0,0,0)" stroke="none" font-family="Avenir, Helvetica, Arial, sans-serif" font-size="32px" font-style="normal" font-weight="bold" text-decoration="normal" x="1303.0000007152557" y="715.0000021457672" text-anchor="middle" dominant-baseline="text-after-edge" fill-opacity="1">ip_range_network</text><path fill="rgb(225,240,255)" stroke="rgb(29,122,218)" paint-order="fill stroke markers" d=" M 1303.0000007152557 793.000002861023 L 1569.0000007152557 793.000002861023 L 1569.0000007152557 793.000002861023 A 8 8 0 0 1 1577.0000007152557 801.000002861023 L 1577.0000007152557 863.000002861023 L 1577.0000007152557 863.000002861023 A 8 8 0 0 1 1569.0000007152557 871.000002861023 L 1037.0000007152557 871.000002861023 L 1037.0000007152557 871.000002861023 A 8 8 0 0 1 1029.0000007152557 863.000002861023 L 1029.0000007152557 801.000002861023 L 1029.0000007152557 801.000002861023 A 8 8 0 0 1 1037.0000007152557 793.000002861023 L 1303.0000007152557 793.000002861023 Z" fill-opacity="1" stroke-opacity="1" stroke-miterlimit="10" stroke-width="5"/><text fill="rgb(0,0,0)" stroke="none" font-family="Avenir, Helvetica, Arial, sans-serif" font-size="32px" font-style="normal" font-weight="bold" text-decoration="normal" x="1303.0000007152557" y="848.000002861023" text-anchor="middle" dominant-baseline="text-after-edge" fill-opacity="1">labels</text><path fill="rgb(225,240,255)" stroke="rgb(29,122,218)" paint-order="fill stroke markers" d=" M 1303.0000007152557 926.0000035762787 L 1569.0000007152557 926.0000035762787 L 1569.0000007152557 926.0000035762787 A 8 8 0 0 1 1577.0000007152557 934.0000035762787 L 1577.0000007152557 996.0000035762787 L 1577.0000007152557 996.0000035762787 A 8 8 0 0 1 1569.0000007152557 1004.0000035762787 L 1037.0000007152557 1004.0000035762787 L 1037.0000007152557 1004.0000035762787 A 8 8 0 0 1 1029.0000007152557 996.0000035762787 L 1029.0000007152557 934.0000035762787 L 1029.0000007152557 934.0000035762787 A 8 8 0 0 1 1037.0000007152557 926.0000035762787 L 1303.0000007152557 926.0000035762787 Z" fill-opacity="1" stroke-opacity="1" stroke-miterlimit="10" stroke-width="5"/><text fill="rgb(0,0,0)" stroke="none" font-family="Avenir, Helvetica, Arial, sans-serif" font-size="32px" font-style="normal" font-weight="bold" text-decoration="normal" x="1303.0000007152557" y="981.0000035762787" text-anchor="middle" dominant-baseline="text-after-edge" fill-opacity="1">delete_protection</text><path fill="rgb(225,240,255)" stroke="rgb(29,122,218)" paint-order="fill stroke markers" d=" M 1303.0000007152557 1059.0000042915344 L 1569.0000007152557 1059.0000042915344 L 1569.0000007152557 1059.0000042915344 A 8 8 0 0 1 1577.0000007152557 1067.0000042915344 L 1577.0000007152557 1129.0000042915344 L 1577.0000007152557 1129.0000042915344 A 8 8 0 0 1 1569.0000007152557 1137.0000042915344 L 1037.0000007152557 1137.0000042915344 L 1037.0000007152557 1137.0000042915344 A 8 8 0 0 1 1029.0000007152557 1129.0000042915344 L 1029.0000007152557 1067.0000042915344 L 1029.0000007152557 1067.0000042915344 A 8 8 0 0 1 1037.0000007152557 1059.0000042915344 L 1303.0000007152557 1059.0000042915344 Z" fill-opacity="1" stroke-opacity="1" stroke-miterlimit="10" stroke-width="5"/><text fill="rgb(0,0,0)" stroke="none" font-family="Avenir, Helvetica, Arial, sans-serif" font-size="32px" font-style="normal" font-weight="bold" text-decoration="normal" x="1303.0000007152557" y="1114.0000042915344" text-anchor="middle" dominant-baseline="text-after-edge" fill-opacity="1">type</text><path fill="rgb(225,240,255)" stroke="rgb(29,122,218)" paint-order="fill stroke markers" d=" M 1303.0000007152557 1192.0000050067902 L 1569.0000007152557 1192.0000050067902 L 1569.0000007152557 1192.0000050067902 A 8 8 0 0 1 1577.0000007152557 1200.0000050067902 L 1577.0000007152557 1262.0000050067902 L 1577.0000007152557 1262.0000050067902 A 8 8 0 0 1 1569.0000007152557 1270.0000050067902 L 1037.0000007152557 1270.0000050067902 L 1037.0000007152557 1270.0000050067902 A 8 8 0 0 1 1029.0000007152557 1262.0000050067902 L 1029.0000007152557 1200.0000050067902 L 1029.0000007152557 1200.0000050067902 A 8 8 0 0 1 1037.0000007152557 1192.0000050067902 L 1303.0000007152557 1192.0000050067902 Z" fill-opacity="1" stroke-opacity="1" stroke-miterlimit="10" stroke-width="5"/><text fill="rgb(0,0,0)" stroke="none" font-family="Avenir, Helvetica, Arial, sans-serif" font-size="32px" font-style="normal" font-weight="bold" text-decoration="normal" x="1303.0000007152557" y="1247.0000050067902" text-anchor="middle" dominant-baseline="text-after-edge" fill-opacity="1">ip_range_subnet</text><path fill="rgb(40,167,69)" stroke="none" paint-order="stroke fill markers" d=" M 400 1825.000005722046 L 666 1825.000005722046 L 666 1825.000005722046 A 8 8 0 0 1 674 1833.000005722046 L 674 1895.000005722046 L 674 1895.000005722046 A 8 8 0 0 1 666 1903.000005722046 L 134 1903.000005722046 L 134 1903.000005722046 A 8 8 0 0 1 126 1895.000005722046 L 126 1833.000005722046 L 126 1833.000005722046 A 8 8 0 0 1 134 1825.000005722046 L 400 1825.000005722046 Z" fill-opacity="1"/><text fill="rgb(255,255,255)" stroke="none" font-family="Avenir, Helvetica, Arial, sans-serif" font-size="32px" font-style="normal" font-weight="bold" text-decoration="normal" x="400" y="1880.000005722046" text-anchor="middle" dominant-baseline="text-after-edge" fill-opacity="1">default</text><path fill="rgb(40,167,69)" stroke="none" paint-order="stroke fill markers" d=" M 500 2253.2000064373015 L 766 2253.2000064373015 L 766 2253.2000064373015 A 8 8 0 0 1 774 2261.2000064373015 L 774 2323.2000064373015 L 774 2323.2000064373015 A 8 8 0 0 1 766 2331.2000064373015 L 234 2331.2000064373015 L 234 2331.2000064373015 A 8 8 0 0 1 226 2323.2000064373015 L 226 2261.2000064373015 L 226 2261.2000064373015 A 8 8 0 0 1 234 2253.2000064373015 L 500 2253.2000064373015 Z" fill-opacity="1"/><text fill="rgb(255,255,255)" stroke="none" font-family="Avenir, Helvetica, Arial, sans-serif" font-size="32px" font-style="normal" font-weight="bold" text-decoration="normal" x="500" y="2308.2000064373015" text-anchor="middle" dominant-baseline="text-after-edge" fill-opacity="1">default["10.0.0.0/24"]</text><g transform="scale(10,10) translate(-28.1,-4.6000000000000005)"/></g></svg>