<svg version="1.1" xmlns="http://www.w3.org/2000/svg" xmlns:xlink="http://www.w3.org/1999/xlink" width="635.2" height="907.8000000000001"><defs><linearGradient id="xceTMFtAebSp" x1="1001.5000003576279px" x2="2306.0000014305115px" y1="1316.0000035762787px" y2="341.5px" gradientUnits="userSpaceOnUse"><stop offset="0" stop-color="rgb(132,80,186)" stop-opacity="1"/><stop offset="1" stop-color="rgb(0,0,0)" stop-opacity="1"/></linearGradient><linearGradient id="aKoTdnCQgtlW" x1="1001.5000003576279px" x2="2306.0000014305115px" y1="1316.0000035762787px" y2="474.50000071525574px" gradientUnits="userSpaceOnUse"><stop offset="0" stop-color="rgb(132,80,186)" stop-opacity="1"/><stop offset="1" stop-color="rgb(0,0,0)" stop-opacity="1"/></linearGradient><linearGradient id="oCfgAfDyFmds" x1="1001.5000003576279px" x2="2306.0000014305115px" y1="1316.0000035762787px" y2="607.5000014305115px" gradientUnits="userSpaceOnUse"><stop offset="0" stop-color="rgb(132,80,186)" stop-opacity="1"/><stop offset="1" stop-color="rgb(0,0,0)" stop-opacity="1"/></linearGradient><linearGradient id="gxeSxlNBDiBb" x1="1001.5000003576279px" x2="2306.0000014305115px" y1="1316.0000035762787px" y2="740.5000021457672px" gradientUnits="userSpaceOnUse"><stop offset="0" stop-color="rgb(132,80,186)" stop-opacity="1"/><stop offset="1" stop-color="rgb(0,0,0)" stop-opacity="1"/></linearGradient><linearGradient id="qMDJyOGaRKTv" x1="1001.5000003576279px" x2="2306.0000014305115px" y1="1316.0000035762787px" y2="873.500002861023px" gradientUnits="userSpaceOnUse"><stop offset="0" stop-color="rgb(132,80,186)" stop-opacity="1"/><stop offset="1" stop-color="rgb(0,0,0)" stop-opacity="1"/></linearGradient><linearGradient id="ltoQMaEJfXxo" x1="700px" x2="1503.0000007152557px" y1="3459.70001001358px" y2="2404.500007867813px" gradientUnits="userSpaceOnUse"><stop offset="0" stop-color="rgb(211,211,211)" stop-opacity="1"/><stop offset="1" stop-color="rgb(29,122,218)" stop-opacity="1"/></linearGradient><linearGradient id="mWzJCDpsekaL" x1="700px" x2="1503.0000007152557px" y1="3459.70001001358px" y2="2138.5000064373016px" gradientUnits="userSpaceOnUse"><stop offset="0" stop-color="rgb(211,211,211)" stop-opacity="1"/><stop offset="1" stop-color="rgb(29,122,218)" stop-opacity="1"/></linearGradient><linearGradient id="FQqBgxVUcDLc" x1="700px" x2="1503.0000007152557px" y1="3459.70001001358px" y2="2537.500008583069px" gradientUnits="userSpaceOnUse"><stop offset="0" stop-color="rgb(211,211,211)" stop-opacity="1"/><stop offset="1" stop-color="rgb(29,122,218)" stop-opacity="1"/></linearGradient><linearGradient id="UBKKkHwoGyrH" x1="700px" x2="600px" y1="3459.70001001358px" y2="3168.0000092983246px" gradientUnits="userSpaceOnUse"><stop offset="0" stop-color="rgb(211,211,211)" stop-opacity="1"/><stop offset="1" stop-color="rgb(211,211,211)" stop-opacity="1"/></linearGradient><linearGradient id="KDZeedzTUCOD" x1="600px" x2="1503.0000007152557px" y1="3090.0000092983246px" y2="2005.500005722046px" gradientUnits="userSpaceOnUse"><stop offset="0" stop-color="rgb(211,211,211)" stop-opacity="1"/><stop offset="1" stop-color="rgb(29,122,218)" stop-opacity="1"/></linearGradient><linearGradient id="QkEAKsZFWdPm" x1="600px" x2="1503.0000007152557px" y1="3090.0000092983246px" y2="1739.5000042915344px" gradientUnits="userSpaceOnUse"><stop offset="0" stop-color="rgb(211,211,211)" stop-opacity="1"/><stop offset="1" stop-color="rgb(29,122,218)" stop-opacity="1"/></linearGradient><linearGradient id="KTKbACRXVGqR" x1="600px" x2="1503.0000007152557px" y1="3090.0000092983246px" y2="1872.5000050067902px" gradientUnits="userSpaceOnUse"><stop offset="0" stop-color="rgb(211,211,211)" stop-opacity="1"/><stop offset="1" stop-color="rgb(29,122,218)" stop-opacity="1"/></linearGradient><linearGradient id="AfFikLotxLas" x1="600px" x2="1503.0000007152557px" y1="3090.0000092983246px" y2="1606.5000035762787px" gradientUnits="userSpaceOnUse"><stop offset="0" stop-color="rgb(211,211,211)" stop-opacity="1"/><stop offset="1" stop-color="rgb(29,122,218)" stop-opacity="1"/></linearGradient><linearGradient id="ntgrgThbvOaI" x1="500px" x2="600px" y1="2005.500005722046px" y2="3090.0000092983246px" gradientUnits="userSpaceOnUse"><stop offset="0" stop-color="rgb(255,193,7)" stop-opacity="1"/><stop offset="1" stop-color="rgb(211,211,211)" stop-opacity="1"/></linearGradient><linearGradient id="ewuaSScXTTMe" x1="500px" x2="600px" y1="2138.5000064373016px" y2="3090.0000092983246px" gradientUnits="userSpaceOnUse"><stop offset="0" stop-color="rgb(255,193,7)" stop-opacity="1"/><stop offset="1" stop-color="rgb(211,211,211)" stop-opacity="1"/></linearGradient><linearGradient id="fuBCXdpACbrE" x1="500px" x2="600px" y1="1606.5000035762787px" y2="3090.0000092983246px" gradientUnits="userSpaceOnUse"><stop offset="0" stop-color="rgb(255,193,7)" stop-opacity="1"/><stop offset="1" stop-color="rgb(211,211,211)" stop-opacity="1"/></linearGradient><linearGradient id="bmkMuWeJicqW" x1="500px" x2="700px" y1="1739.5000042915344px" y2="3459.70001001358px" gradientUnits="userSpaceOnUse"><stop offset="0" stop-color="rgb(255,193,7)" stop-opacity="1"/><stop offset="1" stop-color="rgb(211,211,211)" stop-opacity="1"/></linearGradient><linearGradient id="txbvOueJVcuU" x1="500px" x2="700px" y1="1872.5000050067902px" y2="3459.70001001358px" gradientUnits="userSpaceOnUse"><stop offset="0" stop-color="rgb(255,193,7)" stop-opacity="1"/><stop offset="1" stop-color="rgb(211,211,211)" stop-opacity="1"/></linearGradient><linearGradient id="TEtMENawimCd" x1="1303.0000007152557px" x2="1001.5000003576279px" y1="341.5px" y2="1316.0000035762787px" gradientUnits="userSpaceOnUse"><stop offset="0" stop-color="rgb(255,193,7)" stop-opacity="1"/><stop offset="1" stop-color="rgb(132,80,186)" stop-opacity="1"/></linearGradient><linearGradient id="otqDdsMMzQKw" x1="1303.0000007152557px" x2="1001.5000003576279px" y1="341.5px" y2="1316.0000035762787px" gradientUnits="userSpaceOnUse"><stop offset="0" stop-color="rgb(255,193,7)" stop-opacity="1"/><stop offset="1" stop-color="rgb(132,80,186)" stop-opacity="1"/></linearGradient><linearGradient id="TaAIhwVJItTk" x1="1303.0000007152557px" x2="1001.5000003576279px" y1="474.50000071525574px" y2="1316.0000035762787px" gradientUnits="userSpaceOnUse"><stop offset="0" stop-color="rgb(255,193,7)" stop-opacity="1"/><stop offset="1" stop-color="rgb(132,80,186)" stop-opacity="1"/></linearGradient><linearGradient id="DohblssVZWHG" x1="1303.0000007152557px" x2="1001.5000003576279px" y1="474.50000071525574px" y2="1316.0000035762787px" gradientUnits="userSpaceOnUse"><stop offset="0" stop-color="rgb(255,193,7)" stop-opacity="1"/><stop offset="1" stop-color="rgb(132,80,186)" stop-opacity="1"/></linearGradient><linearGradient id="ElnoLyFgCUpB" x1="1303.0000007152557px" x2="1001.5000003576279px" y1="607.5000014305115px" y2="1316.0000035762787px" gradientUnits="userSpaceOnUse"><stop offset="0" stop-color="rgb(255,193,7)" stop-opacity="1"/><stop offset="1" stop-color="rgb(132,80,186)" stop-opacity="1"/></linearGradient><linearGradient id="CvNhoyZIdlkn" x1="1303.0000007152557px" x2="1001.5000003576279px" y1="607.5000014305115px" y2="1316.0000035762787px" gradientUnits="userSpaceOnUse"><stop offset="0" stop-color="rgb(255,193,7)" stop-opacity="1"/><stop offset="1" stop-color="rgb(132,80,186)" stop-opacity="1"/></linearGradient><linearGradient id="ZhGCAZaDrQww" x1="1303.0000007152557px" x2="1001.5000003576279px" y1="740.5000021457672px" y2="1316.0000035762787px" gradientUnits="userSpaceOnUse"><stop offset="0" stop-color="rgb(255,193,7)" stop-opacity="1"/><stop offset="1" stop-color="rgb(132,80,186)" stop-opacity="1"/></linearGradient><linearGradient id="mVIGEwnHPcla" x1="1303.0000007152557px" x2="1001.5000003576279px" y1="740.5000021457672px" y2="1316.0000035762787px" gradientUnits="userSpaceOnUse"><stop offset="0" stop-color="rgb(255,193,7)" stop-opacity="1"/><stop offset="1" stop-color="rgb(132,80,186)" stop-opacity="1"/></linearGradient><linearGradient id="JQHVZDfBJWTt" x1="1303.0000007152557px" x2="1001.5000003576279px" y1="873.500002861023px" y2="1316.0000035762787px" gradientUnits="userSpaceOnUse"><stop offset="0" stop-color="rgb(255,193,7)" stop-opacity="1"/><stop offset="1" stop-color="rgb(132,80,186)" stop-opacity="1"/></linearGradient><linearGradient id="cUpkKmoAhTgH" x1="1303.0000007152557px" x2="1001.5000003576279px" y1="873.500002861023px" y2="1316.0000035762787px" gradientUnits="userSpaceOnUse"><stop offset="0" stop-color="rgb(255,193,7)" stop-opacity="1"/><stop offset="1" stop-color="rgb(132,80,186)" stop-opacity="1"/></linearGradient></defs><g transform="translate(57.7,9.200000000000001) scale(0.2,0.2)"><path fill="rgb(244,236,255)" stroke="rgb(255,255,255)" paint-order="fill stroke markers" d=" M 1299.2500007152557 -44 L 2877.0000014305115 -44 L 2877.0000014305115 -44 A 8 8 0 0 1 2885.0000014305115 -36 L 2885.0000014305115 4482.900011444091 L 2885.0000014305115 4482.900011444091 A 8 8 0 0 1 2877.0000014305115 4490.900011444091 L -278.5 4490.900011444091 L -278.5 4490.900011444091 A 8 8 0 0 1 -286.5 4482.900011444091 L -286.5 -36 L -286.5 -36 A 8 8 0 0 1 -278.5 -44 L 1299.2500007152557 -44 Z" fill-opacity="1" stroke-opacity="1" stroke-miterlimit="10" stroke-width="2"/><text fill="rgb(0,0,0)" stroke="none" font-family="Avenir, Helvetica, Arial, sans-serif" font-size="32px" font-style="normal" font-weight="bold" text-decoration="normal" x="1299.2500007152557" y="31" text-anchor="middle" dominant-baseline="text-after-edge" fill-opacity="1">.</text><path fill="rgb(255,255,255)" stroke="rgb(211,211,211)" paint-order="fill stroke markers" d=" M 1303.0000007152557 157.5 L 1672.5000007152557 157.5 L 1672.5000007152557 157.5 A 8 8 0 0 1 1680.5000007152557 165.5 L 1680.5000007152557 966.500002861023 L 1680.5000007152557 966.500002861023 A 8 8 0 0 1 1672.5000007152557 974.500002861023 L 933.5000007152557 974.500002861023 L 933.5000007152557 974.500002861023 A 8 8 0 0 1 925.5000007152557 966.500002861023 L 925.5000007152557 165.5 L 925.5000007152557 165.5 A 8 8 0 0 1 933.5000007152557 157.5 L 1303.0000007152557 157.5 Z" fill-opacity="1" stroke-opacity="1" stroke-miterlimit="10"/><text fill="rgb(0,0,0)" stroke="none" font-family="Avenir, Helvetica, Arial, sans-serif" font-size="32px" font-style="normal" font-weight="bold" text-decoration="normal" x="1303.0000007152557" y="232.5" text-anchor="middle" dominant-baseline="text-after-edge" fill-opacity="1">outputs.tf</text><path fill="rgb(255,255,255)" stroke="rgb(211,211,211)" paint-order="fill stroke markers" d=" M 300 157.5 L 669.5 157.5 L 669.5 157.5 A 8 8 0 0 1 677.5 165.5 L 677.5 434.5 L 677.5 434.5 A 8 8 0 0 1 669.5 442.5 L -69.5 442.5 L -69.5 442.5 A 8 8 0 0 1 -77.5 434.5 L -77.5 165.5 L -77.5 165.5 A 8 8 0 0 1 -69.5 157.5 L 300 157.5 Z" fill-opacity="1" stroke-opacity="1" stroke-miterlimit="10"/><text fill="rgb(0,0,0)" stroke="none" font-family="Avenir, Helvetica, Arial, sans-serif" font-size="32px" font-style="normal" font-weight="bold" text-decoration="normal" x="300" y="232.5" text-anchor="middle" dominant-baseline="text-after-edge" fill-opacity="1">variables.tf</text><path fill="rgb(255,255,255)" stroke="rgb(211,211,211)" paint-order="fill stroke markers" d=" M 1001.5000003576279 1215.0000035762787 L 2080.0000007152557 1215.0000035762787 L 2080.0000007152557 1215.0000035762787 A 8 8 0 0 1 2088.0000007152557 1223.0000035762787 L 2088.0000007152557 4281.400011444091 L 2088.0000007152557 4281.400011444091 A 8 8 0 0 1 2080.0000007152557 4289.400011444091 L -77 4289.400011444091 L -77 4289.400011444091 A 8 8 0 0 1 -85 4281.400011444091 L -85 1223.0000035762787 L -85 1223.0000035762787 A 8 8 0 0 1 -77 1215.0000035762787 L 1001.5000003576279 1215.0000035762787 Z" fill-opacity="1" stroke-opacity="1" stroke-miterlimit="10"/><text fill="rgb(0,0,0)" stroke="none" font-family="Avenir, Helvetica, Arial, sans-serif" font-size="32px" font-style="normal" font-weight="bold" text-decoration="normal" x="1001.5000003576279" y="1290.0000035762787" text-anchor="middle" dominant-baseline="text-after-edge" fill-opacity="1">main.tf</text><path fill="rgb(255,255,255)" stroke="rgb(211,211,211)" paint-order="fill stroke markers" d=" M 2306.0000014305115 157.5 L 2675.5000014305115 157.5 L 2675.5000014305115 157.5 A 8 8 0 0 1 2683.5000014305115 165.5 L 2683.5000014305115 966.500002861023 L 2683.5000014305115 966.500002861023 A 8 8 0 0 1 2675.5000014305115 974.500002861023 L 1936.5000014305115 974.500002861023 L 1936.5000014305115 974.500002861023 A 8 8 0 0 1 1928.5000014305115 966.500002861023 L 1928.5000014305115 165.5 L 1928.5000014305115 165.5 A 8 8 0 0 1 1936.5000014305115 157.5 L 2306.0000014305115 157.5 Z" fill-opacity="1" stroke-opacity="1" stroke-miterlimit="10"/><text fill="rgb(0,0,0)" stroke="none" font-family="Avenir, Helvetica, Arial, sans-serif" font-size="32px" font-style="normal" font-weight="bold" text-decoration="normal" x="2306.0000014305115" y="232.5" text-anchor="middle" dominant-baseline="text-after-edge" fill-opacity="1">unknown file</text><path fill="rgb(255,255,255)" stroke="rgb(132,80,186)" paint-order="fill stroke markers" d=" M 1001.5000003576279 1321.0000035762787 L 1974.0000007152557 1321.0000035762787 L 1974.0000007152557 1321.0000035762787 A 8 8 0 0 1 1982.0000007152557 1329.0000035762787 L 1982.0000007152557 4175.400011444091 L 1982.0000007152557 4175.400011444091 A 8 8 0 0 1 1974.0000007152557 4183.400011444091 L 29 4183.400011444091 L 29 4183.400011444091 A 8 8 0 0 1 21 4175.400011444091 L 21 1329.0000035762787 L 21 1329.0000035762787 A 8 8 0 0 1 29 1321.0000035762787 L 1001.5000003576279 1321.0000035762787 Z" fill-opacity="1" stroke-opacity="1" stroke-miterlimit="10" stroke-width="10"/><text fill="rgb(132,80,186)" stroke="none" font-family="Avenir, Helvetica, Arial, sans-serif" font-size="32px" font-style="normal" font-weight="bold" text-decoration="normal" x="1001.5000003576279" y="1381.0000035762787" text-anchor="middle" dominant-baseline="text-after-edge" fill-opacity="1">hcloud_network</text><path fill="rgb(255,255,255)" stroke="rgb(211,211,211)" paint-order="fill stroke markers" d=" M 1503.0000007152557 1422.5000035762787 L 1872.5000007152557 1422.5000035762787 L 1872.5000007152557 1422.5000035762787 A 8 8 0 0 1 1880.5000007152557 1430.5000035762787 L 1880.5000007152557 2630.500008583069 L 1880.5000007152557 2630.500008583069 A 8 8 0 0 1 1872.5000007152557 2638.500008583069 L 1133.5000007152557 2638.500008583069 L 1133.5000007152557 2638.500008583069 A 8 8 0 0 1 1125.5000007152557 2630.500008583069 L 1125.5000007152557 1430.5000035762787 L 1125.5000007152557 1430.5000035762787 A 8 8 0 0 1 1133.5000007152557 1422.5000035762787 L 1503.0000007152557 1422.5000035762787 Z" fill-opacity="1" stroke-opacity="1" stroke-miterlimit="10"/><text fill="rgb(0,0,0)" stroke="none" font-family="Avenir, Helvetica, Arial, sans-serif" font-size="32px" font-style="normal" font-weight="bold" text-decoration="normal" x="1503.0000007152557" y="1497.5000035762787" text-anchor="middle" dominant-baseline="text-after-edge" fill-opacity="1">variables.tf</text><path fill="rgb(255,255,255)" stroke="rgb(211,211,211)" paint-order="fill stroke markers" d=" M 685.1 2885.0000092983246 L 1195.7 2885.0000092983246 L 1195.7 2885.0000092983246 A 8 8 0 0 1 1203.7 2893.0000092983246 L 1203.7 4073.9000114440914 L 1203.7 4073.9000114440914 A 8 8 0 0 1 1195.7 4081.9000114440914 L 174.5 4081.9000114440914 L 174.5 4081.9000114440914 A 8 8 0 0 1 166.5 4073.9000114440914 L 166.5 2893.0000092983246 L 166.5 2893.0000092983246 A 8 8 0 0 1 174.5 2885.0000092983246 L 685.1 2885.0000092983246 Z" fill-opacity="1" stroke-opacity="1" stroke-miterlimit="10"/><text fill="rgb(0,0,0)" stroke="none" font-family="Avenir, Helvetica, Arial, sans-serif" font-size="32px" font-style="normal" font-weight="bold" text-decoration="normal" x="685.1" y="2960.0000092983246" text-anchor="middle" dominant-baseline="text-after-edge" fill-opacity="1">main.tf</text><path fill="rgb(255,255,255)" stroke="rgb(211,211,211)" paint-order="fill stroke markers" d=" M 500 1422.5000035762787 L 869.5 1422.5000035762787 L 869.5 1422.5000035762787 A 8 8 0 0 1 877.5 1430.5000035762787 L 877.5 2231.5000064373016 L 877.5 2231.5000064373016 A 8 8 0 0 1 869.5 2239.5000064373016 L 130.5 2239.5000064373016 L 130.5 2239.5000064373016 A 8 8 0 0 1 122.5 2231.5000064373016 L 122.5 1430.5000035762787 L 122.5 1430.5000035762787 A 8 8 0 0 1 130.5 1422.5000035762787 L 500 1422.5000035762787 Z" fill-opacity="1" stroke-opacity="1" stroke-miterlimit="10"/><text fill="rgb(0,0,0)" stroke="none" font-family="Avenir, Helvetica, Arial, sans-serif" font-size="32px" font-style="normal" font-weight="bold" text-decoration="normal" x="500" y="1497.5000035762787" text-anchor="middle" dominant-baseline="text-after-edge" fill-opacity="1">outputs.tf</text><path fill="rgb(255,255,255)" stroke="rgb(0,0,0)" paint-order="fill stroke markers" d=" M 700 3346.5000100135803 L 1092.2 3346.5000100135803 L 1092.2 3346.5000100135803 A 8 8 0 0 1 1100.2 3354.5000100135803 L 1100.2 3970.4000114440914 L 1100.2 3970.4000114440914 A 8 8 0 0 1 1092.2 3978.4000114440914 L 307.8 3978.4000114440914 L 307.8 3978.4000114440914 A 8 8 0 0 1 299.8 3970.4000114440914 L 299.8 3354.5000100135803 L 299.8 3354.5000100135803 A 8 8 0 0 1 307.8 3346.5000100135803 L 700 3346.5000100135803 Z" fill-opacity="1" stroke-opacity="1" stroke-miterlimit="10" stroke-width="5"/><rect fill="rgb(255,255,255)" stroke="none" x="489" y="3297.5000100135803" width="422" height="96" fill-opacity="1"/><text fill="rgb(0,0,0)" stroke="none" font-family="Avenir, Helvetica, Arial, sans-serif" font-size="32px" font-style="normal" font-weight="bold" text-decoration="normal" x="700" y="3361.5000100135803" text-anchor="middle" dominant-baseline="text-after-edge" fill-opacity="1">hcloud_network_subnet</text><path fill="rgb(255,255,255)" stroke="rgb(0,0,0)" paint-order="fill stroke markers" d=" M 600 3034.0000092983246 L 922 3034.0000092983246 L 922 3034.0000092983246 A 8 8 0 0 1 930 3042.0000092983246 L 930 3216.0000092983246 L 930 3216.0000092983246 A 8 8 0 0 1 922 3224.0000092983246 L 278 3224.0000092983246 L 278 3224.0000092983246 A 8 8 0 0 1 270 3216.0000092983246 L 270 3042.0000092983246 L 270 3042.0000092983246 A 8 8 0 0 1 278 3034.0000092983246 L 600 3034.0000092983246 Z" fill-opacity="1" stroke-opacity="1" stroke-miterlimit="10" stroke-width="5"/><rect fill="rgb(255,255,255)" stroke="none" x="448" y="2985.0000092983246" width="304" height="96" fill-opacity="1"/><text fill="rgb(0,0,0)" stroke="none" font-family="Avenir, Helvetica, Arial, sans-serif" font-size="32px" font-style="normal" font-weight="bold" text-decoration="normal" x="600" y="3049.0000092983246" text-anchor="middle" dominant-baseline="text-after-edge" fill-opacity="1">hcloud_network</text><path fill="rgb(255,255,255)" stroke="rgb(0,0,0)" paint-order="fill stroke markers" d=" M 700 3462.20001001358 L 1022 3462.20001001358 L 1022 3462.20001001358 A 8 8 0 0 1 1030 3470.20001001358 L 1030 3900.2000114440916 L 1030 3900.2000114440916 A 8 8 0 0 1 1022 3908.2000114440916 L 378 3908.2000114440916 L 378 3908.2000114440916 A 8 8 0 0 1 370 3900.2000114440916 L 370 3470.20001001358 L 370 3470.20001001358 A 8 8 0 0 1 378 3462.20001001358 L 700 3462.20001001358 Z" fill-opacity="1" stroke-opacity="1" stroke-miterlimit="10" stroke-width="5"/><rect fill="rgb(255,255,255)" stroke="none" x="615" y="3413.20001001358" width="170" height="96" fill-opacity="1"/><text fill="rgb(0,0,0)" stroke="none" font-family="Avenir, Helvetica, Arial, sans-serif" font-size="32px" font-style="normal" font-weight="bold" text-decoration="normal" x="700" y="3477.20001001358" text-anchor="middle" dominant-baseline="text-after-edge" fill-opacity="1">default</text><path fill="none" stroke="url(#xceTMFtAebSp)" paint-order="fill stroke markers" d=" M 1001.5000003576279 1316.0000035762787 L 1001.5000003576279 828.7500017881393 L 2306.0000014305115 828.7500017881393 L 2306.0000014305115 341.5" stroke-linejoin="round" stroke-miterlimit="10" stroke-width="10"/><path fill="none" stroke="url(#aKoTdnCQgtlW)" paint-order="fill stroke markers" d=" M 1001.5000003576279 1316.0000035762787 L 1001.5000003576279 895.2500021457672 L 2306.0000014305115 895.2500021457672 L 2306.0000014305115 474.50000071525574" stroke-linejoin="round" stroke-miterlimit="10" stroke-width="10"/><path fill="none" stroke="url(#oCfgAfDyFmds)" paint-order="fill stroke markers" d=" M 1001.5000003576279 1316.0000035762787 L 1001.5000003576279 961.7500025033951 L 2306.0000014305115 961.7500025033951 L 2306.0000014305115 607.5000014305115" stroke-linejoin="round" stroke-miterlimit="10" stroke-width="10"/><path fill="none" stroke="url(#gxeSxlNBDiBb)" paint-order="fill stroke markers" d=" M 1001.5000003576279 1316.0000035762787 L 1001.5000003576279 1028.250002861023 L 2306.0000014305115 1028.250002861023 L 2306.0000014305115 740.5000021457672" stroke-linejoin="round" stroke-miterlimit="10" stroke-width="10"/><path fill="none" stroke="url(#qMDJyOGaRKTv)" paint-order="fill stroke markers" d=" M 1001.5000003576279 1316.0000035762787 L 1001.5000003576279 1094.7500032186508 L 2306.0000014305115 1094.7500032186508 L 2306.0000014305115 873.500002861023" stroke-linejoin="round" stroke-miterlimit="10" stroke-width="10"/><path fill="none" stroke="url(#ltoQMaEJfXxo)" paint-order="fill stroke markers" d=" M 700 3459.70001001358 L 700 2932.1000089406966 L 1503.0000007152557 2932.1000089406966 L 1503.0000007152557 2404.500007867813" stroke-linejoin="round" stroke-miterlimit="10" stroke-width="10"/><path fill="none" stroke="url(#mWzJCDpsekaL)" paint-order="fill stroke markers" d=" M 700 3459.70001001358 L 700 2799.100008225441 L 1503.0000007152557 2799.100008225441 L 1503.0000007152557 2138.5000064373016" stroke-linejoin="round" stroke-miterlimit="10" stroke-width="10"/><path fill="none" stroke="url(#FQqBgxVUcDLc)" paint-order="fill stroke markers" d=" M 700 3459.70001001358 L 700 2998.6000092983245 L 1503.0000007152557 2998.6000092983245 L 1503.0000007152557 2537.500008583069" stroke-linejoin="round" stroke-miterlimit="10" stroke-width="10"/><path fill="none" stroke="url(#UBKKkHwoGyrH)" paint-order="fill stroke markers" d=" M 700 3459.70001001358 L 700 3313.8500096559524 L 600 3313.8500096559524 L 600 3168.0000092983246" stroke-linejoin="round" stroke-miterlimit="10" stroke-width="10"/><path fill="none" stroke="url(#KDZeedzTUCOD)" paint-order="fill stroke markers" d=" M 600 3090.0000092983246 L 600 2547.7500075101852 L 1503.0000007152557 2547.7500075101852 L 1503.0000007152557 2005.500005722046" stroke-linejoin="round" stroke-miterlimit="10" stroke-width="10"/><path fill="none" stroke="url(#QkEAKsZFWdPm)" paint-order="fill stroke markers" d=" M 600 3090.0000092983246 L 600 2414.7500067949295 L 1503.0000007152557 2414.7500067949295 L 1503.0000007152557 1739.5000042915344" stroke-linejoin="round" stroke-miterlimit="10" stroke-width="10"/><path fill="none" stroke="url(#KTKbACRXVGqR)" paint-order="fill stroke markers" d=" M 600 3090.0000092983246 L 600 2481.2500071525574 L 1503.0000007152557 2481.2500071525574 L 1503.0000007152557 1872.5000050067902" stroke-linejoin="round" stroke-miterlimit="10" stroke-width="10"/><path fill="none" stroke="url(#AfFikLotxLas)" paint-order="fill stroke markers" d=" M 600 3090.0000092983246 L 600 2348.2500064373016 L 1503.0000007152557 2348.2500064373016 L 1503.0000007152557 1606.5000035762787" stroke-linejoin="round" stroke-miterlimit="10" stroke-width="10"/><path fill="none" stroke="url(#ntgrgThbvOaI)" paint-order="fill stroke markers" d=" M 500 2005.500005722046 L 500 2547.7500075101852 L 600 2547.7500075101852 L 600 3090.0000092983246" stroke-linejoin="round" stroke-miterlimit="10" stroke-width="10"/><path fill="none" stroke="url(#ewuaSScXTTMe)" paint-order="fill stroke markers" d=" M 500 2138.5000064373016 L 500 2614.250007867813 L 600 2614.250007867813 L 600 3090.0000092983246" stroke-linejoin="round" stroke-miterlimit="10" stroke-width="10"/><path fill="none" stroke="url(#fuBCXdpACbrE)" paint-order="fill stroke markers" d=" M 500 1606.5000035762787 L 500 2348.2500064373016 L 600 2348.2500064373016 L 600 3090.0000092983246" stroke-linejoin="round" stroke-miterlimit="10" stroke-width="10"/><path fill="none" stroke="url(#bmkMuWeJicqW)" paint-order="fill stroke markers" d=" M 500 1739.5000042915344 L 500 2599.6000071525573 L 700 2599.6000071525573 L 700 3459.70001001358" stroke-linejoin="round" stroke-miterlimit="10" stroke-width="10"/><path fill="none" stroke="url(#txbvOueJVcuU)" paint-order="fill stroke markers" d=" M 500 1872.5000050067902 L 500 2666.100007510185 L 700 2666.100007510185 L 700 3459.70001001358" stroke-linejoin="round" stroke-miterlimit="10" stroke-width="10"/><path fill="none" stroke="url(#TEtMENawimCd)" paint-order="fill stroke markers" d=" M 1303.0000007152557 341.5 L 1303.0000007152557 828.7500017881393 L 1001.5000003576279 828.7500017881393 L 1001.5000003576279 1316.0000035762787" stroke-linejoin="round" stroke-miterlimit="10" stroke-width="10"/><path fill="none" stroke="url(#otqDdsMMzQKw)" paint-order="fill stroke markers" d=" M 1303.0000007152557 341.5 L 1303.0000007152557 828.7500017881393 L 1001.5000003576279 828.7500017881393 L 1001.5000003576279 1316.0000035762787" stroke-linejoin="round" stroke-miterlimit="10" stroke-width="10"/><path fill="none" stroke="url(#TaAIhwVJItTk)" paint-order="fill stroke markers" d=" M 1303.0000007152557 474.50000071525574 L 1303.0000007152557 895.2500021457672 L 1001.5000003576279 895.2500021457672 L 1001.5000003576279 1316.0000035762787" stroke-linejoin="round" stroke-miterlimit="10" stroke-width="10"/><path fill="none" stroke="url(#DohblssVZWHG)" paint-order="fill stroke markers" d=" M 1303.0000007152557 474.50000071525574 L 1303.0000007152557 895.2500021457672 L 1001.5000003576279 895.2500021457672 L 1001.5000003576279 1316.0000035762787" stroke-linejoin="round" stroke-miterlimit="10" stroke-width="10"/><path fill="none" stroke="url(#ElnoLyFgCUpB)" paint-order="fill stroke markers" d=" M 1303.0000007152557 607.5000014305115 L 1303.0000007152557 961.7500025033951 L 1001.5000003576279 961.7500025033951 L 1001.5000003576279 1316.0000035762787" stroke-linejoin="round" stroke-miterlimit="10" stroke-width="10"/><path fill="none" stroke="url(#CvNhoyZIdlkn)" paint-order="fill stroke markers" d=" M 1303.0000007152557 607.5000014305115 L 1303.0000007152557 961.7500025033951 L 1001.5000003576279 961.7500025033951 L 1001.5000003576279 1316.0000035762787" stroke-linejoin="round" stroke-miterlimit="10" stroke-width="10"/><path fill="none" stroke="url(#ZhGCAZaDrQww)" paint-order="fill stroke markers" d=" M 1303.0000007152557 740.5000021457672 L 1303.0000007152557 1028.250002861023 L 1001.5000003576279 1028.250002861023 L 1001.5000003576279 1316.0000035762787" stroke-linejoin="round" stroke-miterlimit="10" stroke-width="10"/><path fill="none" stroke="url(#mVIGEwnHPcla)" paint-order="fill stroke markers" d=" M 1303.0000007152557 740.5000021457672 L 1303.0000007152557 1028.250002861023 L 1001.5000003576279 1028.250002861023 L 1001.5000003576279 1316.0000035762787" stroke-linejoin="round" stroke-miterlimit="10" stroke-width="10"/><path fill="none" stroke="url(#JQHVZDfBJWTt)" paint-order="fill stroke markers" d=" M 1303.0000007152557 873.500002861023 L 1303.0000007152557 1094.7500032186508 L 1001.5000003576279 1094.7500032186508 L 1001.5000003576279 1316.0000035762787" stroke-linejoin="round" stroke-miterlimit="10" stroke-width="10"/><path fill="none" stroke="url(#cUpkKmoAhTgH)" paint-order="fill stroke markers" d=" M 1303.0000007152557 873.500002861023 L 1303.0000007152557 1094.7500032186508 L 1001.5000003576279 1094.7500032186508 L 1001.5000003576279 1316.0000035762787" stroke-linejoin="round" stroke-miterlimit="10" stroke-width="10"/><path fill="rgb(255,247,224)" stroke="rgb(255,193,7)" paint-order="fill stroke markers" d=" M 1303.0000007152557 261 L 1569.0000007152557 261 L 1569.0000007152557 261 A 8 8 0 0 1 1577.0000007152557 269 L 1577.0000007152557 331 L 1577.0000007152557 331 A 8 8 0 0 1 1569.0000007152557 339 L 1037.0000007152557 339 L 1037.0000007152557 339 A 8 8 0 0 1 1029.0000007152557 331 L 1029.0000007152557 269 L 1029.0000007152557 269 A 8 8 0 0 1 1037.0000007152557 261 L 1303.0000007152557 261 Z" fill-opacity="1" stroke-opacity="1" stroke-miterlimit="10" stroke-width="5"/><text fill="rgb(0,0,0)" stroke="none" font-family="Avenir, Helvetica, Arial, sans-serif" font-size="32px" font-style="normal" font-weight="bold" text-decoration="normal" x="1303.0000007152557" y="316" text-anchor="middle" dominant-baseline="text-after-edge" fill-opacity="1">network_name</text><path fill="rgb(255,247,224)" stroke="rgb(255,193,7)" paint-order="fill stroke markers" d=" M 1303.0000007152557 394.00000071525574 L 1569.0000007152557 394.00000071525574 L 1569.0000007152557 394.00000071525574 A 8 8 0 0 1 1577.0000007152557 402.00000071525574 L 1577.0000007152557 464.00000071525574 L 1577.0000007152557 464.00000071525574 A 8 8 0 0 1 1569.0000007152557 472.00000071525574 L 1037.0000007152557 472.00000071525574 L 1037.0000007152557 472.00000071525574 A 8 8 0 0 1 1029.0000007152557 464.00000071525574 L 1029.0000007152557 402.00000071525574 L 1029.0000007152557 402.00000071525574 A 8 8 0 0 1 1037.0000007152557 394.00000071525574 L 1303.0000007152557 394.00000071525574 Z" fill-opacity="1" stroke-opacity="1" stroke-miterlimit="10" stroke-width="5"/><text fill="rgb(0,0,0)" stroke="none" font-family="Avenir, Helvetica, Arial, sans-serif" font-size="32px" font-style="normal" font-weight="bold" text-decoration="normal" x="1303.0000007152557" y="449.00000071525574" text-anchor="middle" dominant-baseline="text-after-edge" fill-opacity="1">network_id</text><path fill="rgb(255,247,224)" stroke="rgb(255,193,7)" paint-order="fill stroke markers" d=" M 1303.0000007152557 527.0000014305115 L 1569.0000007152557 527.0000014305115 L 1569.0000007152557 527.0000014305115 A 8 8 0 0 1 1577.0000007152557 535.0000014305115 L 1577.0000007152557 597.0000014305115 L 1577.0000007152557 597.0000014305115 A 8 8 0 0 1 1569.0000007152557 605.0000014305115 L 1037.0000007152557 605.0000014305115 L 1037.0000007152557 605.0000014305115 A 8 8 0 0 1 1029.0000007152557 597.0000014305115 L 1029.0000007152557 535.0000014305115 L 1029.0000007152557 535.0000014305115 A 8 8 0 0 1 1037.0000007152557 527.0000014305115 L 1303.0000007152557 527.0000014305115 Z" fill-opacity="1" stroke-opacity="1" stroke-miterlimit="10" stroke-width="5"/><text fill="rgb(0,0,0)" stroke="none" font-family="Avenir, Helvetica, Arial, sans-serif" font-size="32px" font-style="normal" font-weight="bold" text-decoration="normal" x="1303.0000007152557" y="582.0000014305115" text-anchor="middle" dominant-baseline="text-after-edge" fill-opacity="1">network_ip_range</text><path fill="rgb(255,247,224)" stroke="rgb(255,193,7)" paint-order="fill stroke markers" d=" M 1303.0000007152557 660.0000021457672 L 1569.0000007152557 660.0000021457672 L 1569.0000007152557 660.0000021457672 A 8 8 0 0 1 1577.0000007152557 668.0000021457672 L 1577.0000007152557 730.0000021457672 L 1577.0000007152557 730.0000021457672 A 8 8 0 0 1 1569.0000007152557 738.0000021457672 L 1037.0000007152557 738.0000021457672 L 1037.0000007152557 738.0000021457672 A 8 8 0 0 1 1029.0000007152557 730.0000021457672 L 1029.0000007152557 668.0000021457672 L 1029.0000007152557 668.0000021457672 A 8 8 0 0 1 1037.0000007152557 660.0000021457672 L 1303.0000007152557 660.0000021457672 Z" fill-opacity="1" stroke-opacity="1" stroke-miterlimit="10" stroke-width="5"/><text fill="rgb(0,0,0)" stroke="none" font-family="Avenir, Helvetica, Arial, sans-serif" font-size="32px" font-style="normal" font-weight="bold" text-decoration="normal" x="1303.0000007152557" y="715.0000021457672" text-anchor="middle" dominant-baseline="text-after-edge" fill-opacity="1">subnet_id</text><path fill="rgb(255,247,224)" stroke="rgb(255,193,7)" paint-order="fill stroke markers" d=" M 1303.0000007152557 793.000002861023 L 1569.0000007152557 793.000002861023 L 1569.0000007152557 793.000002861023 A 8 8 0 0 1 1577.0000007152557 801.000002861023 L 1577.0000007152557 863.000002861023 L 1577.0000007152557 863.000002861023 A 8 8 0 0 1 1569.0000007152557 871.000002861023 L 1037.0000007152557 871.000002861023 L 1037.0000007152557 871.000002861023 A 8 8 0 0 1 1029.0000007152557 863.000002861023 L 1029.0000007152557 801.000002861023 L 1029.0000007152557 801.000002861023 A 8 8 0 0 1 1037.0000007152557 793.000002861023 L 1303.0000007152557 793.000002861023 Z" fill-opacity="1" stroke-opacity="1" stroke-miterlimit="10" stroke-width="5"/><text fill="rgb(0,0,0)" stroke="none" font-family="Avenir, Helvetica, Arial, sans-serif" font-size="32px" font-style="normal" font-weight="bold" text-decoration="normal" x="1303.0000007152557" y="848.000002861023" text-anchor="middle" dominant-baseline="text-after-edge" fill-opacity="1">subnet_ip_range</text><path fill="rgb(225,240,255)" stroke="rgb(29,122,218)" paint-order="fill stroke markers" d=" M 300 261 L 566 261 L 566 261 A 8 8 0 0 1 574 269 L 574 331 L 574 331 A 8 8 0 0 1 566 339 L 34 339 L 34 339 A 8 8 0 0 1 26 331 L 26 269 L 26 269 A 8 8 0 0 1 34 261 L 300 261 Z" fill-opacity="1" stroke-opacity="1" stroke-miterlimit="10" stroke-width="5"/><text fill="rgb(0,0,0)" stroke="none" font-family="Avenir, Helvetica, Arial, sans-serif" font-size="32px" font-style="normal" font-weight="bold" text-decoration="normal" x="300" y="316" text-anchor="middle" dominant-baseline="text-after-edge" fill-opacity="1">token</text><path fill="rgb(225,240,255)" stroke="rgb(29,122,218)" paint-order="fill stroke markers" d=" M 1503.0000007152557 1526.0000035762787 L 1769.0000007152557 1526.0000035762787 L 1769.0000007152557 1526.0000035762787 A 8 8 0 0 1 1777.0000007152557 1534.0000035762787 L 1777.0000007152557 1596.0000035762787 L 1777.0000007152557 1596.0000035762787 A 8 8 0 0 1 1769.0000007152557 1604.0000035762787 L 1237.0000007152557 1604.0000035762787 L 1237.0000007152557 1604.0000035762787 A 8 8 0 0 1 1229.0000007152557 1596.0000035762787 L 1229.0000007152557 1534.0000035762787 L 1229.0000007152557 1534.0000035762787 A 8 8 0 0 1 1237.0000007152557 1526.0000035762787 L 1503.0000007152557 1526.0000035762787 Z" fill-opacity="1" stroke-opacity="1" stroke-miterlimit="10" stroke-width="5"/><text fill="rgb(0,0,0)" stroke="none" font-family="Avenir, Helvetica, Arial, sans-serif" font-size="32px" font-style="normal" font-weight="bold" text-decoration="normal" x="1503.0000007152557" y="1581.0000035762787" text-anchor="middle" dominant-baseline="text-after-edge" fill-opacity="1">name</text><path fill="rgb(225,240,255)" stroke="rgb(29,122,218)" paint-order="fill stroke markers" d=" M 1503.0000007152557 1659.0000042915344 L 1769.0000007152557 1659.0000042915344 L 1769.0000007152557 1659.0000042915344 A 8 8 0 0 1 1777.0000007152557 1667.0000042915344 L 1777.0000007152557 1729.0000042915344 L 1777.0000007152557 1729.0000042915344 A 8 8 0 0 1 1769.0000007152557 1737.0000042915344 L 1237.0000007152557 1737.0000042915344 L 1237.0000007152557 1737.0000042915344 A 8 8 0 0 1 1229.0000007152557 1729.0000042915344 L 1229.0000007152557 1667.0000042915344 L 1229.0000007152557 1667.0000042915344 A 8 8 0 0 1 1237.0000007152557 1659.0000042915344 L 1503.0000007152557 1659.0000042915344 Z" fill-opacity="1" stroke-opacity="1" stroke-miterlimit="10" stroke-width="5"/><text fill="rgb(0,0,0)" stroke="none" font-family="Avenir, Helvetica, Arial, sans-serif" font-size="32px" font-style="normal" font-weight="bold" text-decoration="normal" x="1503.0000007152557" y="1714.0000042915344" text-anchor="middle" dominant-baseline="text-after-edge" fill-opacity="1">ip_range_network</text><path fill="rgb(225,240,255)" stroke="rgb(29,122,218)" paint-order="fill stroke markers" d=" M 1503.0000007152557 1792.0000050067902 L 1769.0000007152557 1792.0000050067902 L 1769.0000007152557 1792.0000050067902 A 8 8 0 0 1 1777.0000007152557 1800.0000050067902 L 1777.0000007152557 1862.0000050067902 L 1777.0000007152557 1862.0000050067902 A 8 8 0 0 1 1769.0000007152557 1870.0000050067902 L 1237.0000007152557 1870.0000050067902 L 1237.0000007152557 1870.0000050067902 A 8 8 0 0 1 1229.0000007152557 1862.0000050067902 L 1229.0000007152557 1800.0000050067902 L 1229.0000007152557 1800.0000050067902 A 8 8 0 0 1 1237.0000007152557 1792.0000050067902 L 1503.0000007152557 1792.0000050067902 Z" fill-opacity="1" stroke-opacity="1" stroke-miterlimit="10" stroke-width="5"/><text fill="rgb(0,0,0)" stroke="none" font-family="Avenir, Helvetica, Arial, sans-serif" font-size="32px" font-style="normal" font-weight="bold" text-decoration="normal" x="1503.0000007152557" y="1847.0000050067902" text-anchor="middle" dominant-baseline="text-after-edge" fill-opacity="1">labels</text><path fill="rgb(225,240,255)" stroke="rgb(29,122,218)" paint-order="fill stroke markers" d=" M 1503.0000007152557 1925.000005722046 L 1769.0000007152557 1925.000005722046 L 1769.0000007152557 1925.000005722046 A 8 8 0 0 1 1777.0000007152557 1933.000005722046 L 1777.0000007152557 1995.000005722046 L 1777.0000007152557 1995.000005722046 A 8 8 0 0 1 1769.0000007152557 2003.000005722046 L 1237.0000007152557 2003.000005722046 L 1237.0000007152557 2003.000005722046 A 8 8 0 0 1 1229.0000007152557 1995.000005722046 L 1229.0000007152557 1933.000005722046 L 1229.0000007152557 1933.000005722046 A 8 8 0 0 1 1237.0000007152557 1925.000005722046 L 1503.0000007152557 1925.000005722046 Z" fill-opacity="1" stroke-opacity="1" stroke-miterlimit="10" stroke-width="5"/><text fill="rgb(0,0,0)" stroke="none" font-family="Avenir, Helvetica, Arial, sans-serif" font-size="32px" font-style="normal" font-weight="bold" text-decoration="normal" x="1503.0000007152557" y="1980.000005722046" text-anchor="middle" dominant-baseline="text-after-edge" fill-opacity="1">delete_protection</text><path fill="rgb(225,240,255)" stroke="rgb(29,122,218)" paint-order="fill stroke markers" d=" M 1503.0000007152557 2058.0000064373016 L 1769.0000007152557 2058.0000064373016 L 1769.0000007152557 2058.0000064373016 A 8 8 0 0 1 1777.0000007152557 2066.0000064373016 L 1777.0000007152557 2128.0000064373016 L 1777.0000007152557 2128.0000064373016 A 8 8 0 0 1 1769.0000007152557 2136.0000064373016 L 1237.0000007152557 2136.0000064373016 L 1237.0000007152557 2136.0000064373016 A 8 8 0 0 1 1229.0000007152557 2128.0000064373016 L 1229.0000007152557 2066.0000064373016 L 1229.0000007152557 2066.0000064373016 A 8 8 0 0 1 1237.0000007152557 2058.0000064373016 L 1503.0000007152557 2058.0000064373016 Z" fill-opacity="1" stroke-opacity="1" stroke-miterlimit="10" stroke-width="5"/><text fill="rgb(0,0,0)" stroke="none" font-family="Avenir, Helvetica, Arial, sans-serif" font-size="32px" font-style="normal" font-weight="bold" text-decoration="normal" x="1503.0000007152557" y="2113.0000064373016" text-anchor="middle" dominant-baseline="text-after-edge" fill-opacity="1">type</text><path fill="rgb(225,240,255)" stroke="rgb(29,122,218)" paint-order="fill stroke markers" d=" M 1503.0000007152557 2191.0000071525574 L 1769.0000007152557 2191.0000071525574 L 1769.0000007152557 2191.0000071525574 A 8 8 0 0 1 1777.0000007152557 2199.0000071525574 L 1777.0000007152557 2261.0000071525574 L 1777.0000007152557 2261.0000071525574 A 8 8 0 0 1 1769.0000007152557 2269.0000071525574 L 1237.0000007152557 2269.0000071525574 L 1237.0000007152557 2269.0000071525574 A 8 8 0 0 1 1229.0000007152557 2261.0000071525574 L 1229.0000007152557 2199.0000071525574 L 1229.0000007152557 2199.0000071525574 A 8 8 0 0 1 1237.0000007152557 2191.0000071525574 L 1503.0000007152557 2191.0000071525574 Z" fill-opacity="1" stroke-opacity="1" stroke-miterlimit="10" stroke-width="5"/><text fill="rgb(0,0,0)" stroke="none" font-family="Avenir, Helvetica, Arial, sans-serif" font-size="32px" font-style="normal" font-weight="bold" text-decoration="normal" x="1503.0000007152557" y="2246.0000071525574" text-anchor="middle" dominant-baseline="text-after-edge" fill-opacity="1">ip_range_subnet</text><path fill="rgb(225,240,255)" stroke="rgb(29,122,218)" paint-order="fill stroke markers" d=" M 1503.0000007152557 2324.000007867813 L 1769.0000007152557 2324.000007867813 L 1769.0000007152557 2324.000007867813 A 8 8 0 0 1 1777.0000007152557 2332.000007867813 L 1777.0000007152557 2394.000007867813 L 1777.0000007152557 2394.000007867813 A 8 8 0 0 1 1769.0000007152557 2402.000007867813 L 1237.0000007152557 2402.000007867813 L 1237.0000007152557 2402.000007867813 A 8 8 0 0 1 1229.0000007152557 2394.000007867813 L 1229.0000007152557 2332.000007867813 L 1229.0000007152557 2332.000007867813 A 8 8 0 0 1 1237.0000007152557 2324.000007867813 L 1503.0000007152557 2324.000007867813 Z" fill-opacity="1" stroke-opacity="1" stroke-miterlimit="10" stroke-width="5"/><text fill="rgb(0,0,0)" stroke="none" font-family="Avenir, Helvetica, Arial, sans-serif" font-size="32px" font-style="normal" font-weight="bold" text-decoration="normal" x="1503.0000007152557" y="2379.000007867813" text-anchor="middle" dominant-baseline="text-after-edge" fill-opacity="1">network_zone</text><path fill="rgb(225,240,255)" stroke="rgb(29,122,218)" paint-order="fill stroke markers" d=" M 1503.0000007152557 2457.000008583069 L 1769.0000007152557 2457.000008583069 L 1769.0000007152557 2457.000008583069 A 8 8 0 0 1 1777.0000007152557 2465.000008583069 L 1777.0000007152557 2527.000008583069 L 1777.0000007152557 2527.000008583069 A 8 8 0 0 1 1769.0000007152557 2535.000008583069 L 1237.0000007152557 2535.000008583069 L 1237.0000007152557 2535.000008583069 A 8 8 0 0 1 1229.0000007152557 2527.000008583069 L 1229.0000007152557 2465.000008583069 L 1229.0000007152557 2465.000008583069 A 8 8 0 0 1 1237.0000007152557 2457.000008583069 L 1503.0000007152557 2457.000008583069 Z" fill-opacity="1" stroke-opacity="1" stroke-miterlimit="10" stroke-width="5"/><text fill="rgb(0,0,0)" stroke="none" font-family="Avenir, Helvetica, Arial, sans-serif" font-size="32px" font-style="normal" font-weight="bold" text-decoration="normal" x="1503.0000007152557" y="2512.000008583069" text-anchor="middle" dominant-baseline="text-after-edge" fill-opacity="1">vswitch_id</text><path fill="rgb(40,167,69)" stroke="none" paint-order="stroke fill markers" d=" M 700 3518.20001001358 L 966 3518.20001001358 L 966 3518.20001001358 A 8 8 0 0 1 974 3526.20001001358 L 974 3588.20001001358 L 974 3588.20001001358 A 8 8 0 0 1 966 3596.20001001358 L 434 3596.20001001358 L 434 3596.20001001358 A 8 8 0 0 1 426 3588.20001001358 L 426 3526.20001001358 L 426 3526.20001001358 A 8 8 0 0 1 434 3518.20001001358 L 700 3518.20001001358 Z" fill-opacity="1"/><text fill="rgb(255,255,255)" stroke="none" font-family="Avenir, Helvetica, Arial, sans-serif" font-size="32px" font-style="normal" font-weight="bold" text-decoration="normal" x="700" y="3573.20001001358" text-anchor="middle" dominant-baseline="text-after-edge" fill-opacity="1">default["10.0.10.0/24"]</text><path fill="rgb(40,167,69)" stroke="none" paint-order="stroke fill markers" d=" M 700 3646.200010728836 L 966 3646.200010728836 L 966 3646.200010728836 A 8 8 0 0 1 974 3654.200010728836 L 974 3716.200010728836 L 974 3716.200010728836 A 8 8 0 0 1 966 3724.200010728836 L 434 3724.200010728836 L 434 3724.200010728836 A 8 8 0 0 1 426 3716.200010728836 L 426 3654.200010728836 L 426 3654.200010728836 A 8 8 0 0 1 434 3646.200010728836 L 700 3646.200010728836 Z" fill-opacity="1"/><text fill="rgb(255,255,255)" stroke="none" font-family="Avenir, Helvetica, Arial, sans-serif" font-size="32px" font-style="normal" font-weight="bold" text-decoration="normal" x="700" y="3701.200010728836" text-anchor="middle" dominant-baseline="text-after-edge" fill-opacity="1">default["10.0.20.0/24"]</text><path fill="rgb(40,167,69)" stroke="none" paint-order="stroke fill markers" d=" M 700 3774.2000114440916 L 966 3774.2000114440916 L 966 3774.2000114440916 A 8 8 0 0 1 974 3782.2000114440916 L 974 3844.2000114440916 L 974 3844.2000114440916 A 8 8 0 0 1 966 3852.2000114440916 L 434 3852.2000114440916 L 434 3852.2000114440916 A 8 8 0 0 1 426 3844.2000114440916 L 426 3782.2000114440916 L 426 3782.2000114440916 A 8 8 0 0 1 434 3774.2000114440916 L 700 3774.2000114440916 Z" fill-opacity="1"/><text fill="rgb(255,255,255)" stroke="none" font-family="Avenir, Helvetica, Arial, sans-serif" font-size="32px" font-style="normal" font-weight="bold" text-decoration="normal" x="700" y="3829.2000114440916" text-anchor="middle" dominant-baseline="text-after-edge" fill-opacity="1">default["10.0.30.0/24"]</text><path fill="rgb(40,167,69)" stroke="none" paint-order="stroke fill markers" d=" M 600 3090.0000092983246 L 866 3090.0000092983246 L 866 3090.0000092983246 A 8 8 0 0 1 874 3098.0000092983246 L 874 3160.0000092983246 L 874 3160.0000092983246 A 8 8 0 0 1 866 3168.0000092983246 L 334 3168.0000092983246 L 334 3168.0000092983246 A 8 8 0 0 1 326 3160.0000092983246 L 326 3098.0000092983246 L 326 3098.0000092983246 A 8 8 0 0 1 334 3090.0000092983246 L 600 3090.0000092983246 Z" fill-opacity="1"/><text fill="rgb(255,255,255)" stroke="none" font-family="Avenir, Helvetica, Arial, sans-serif" font-size="32px" font-style="normal" font-weight="bold" text-decoration="normal" x="600" y="3145.0000092983246" text-anchor="middle" dominant-baseline="text-after-edge" fill-opacity="1">default</text><path fill="rgb(255,247,224)" stroke="rgb(255,193,7)" paint-order="fill stroke markers" d=" M 500 1526.0000035762787 L 766 1526.0000035762787 L 766 1526.0000035762787 A 8 8 0 0 1 774 1534.0000035762787 L 774 1596.0000035762787 L 774 1596.0000035762787 A 8 8 0 0 1 766 1604.0000035762787 L 234 1604.0000035762787 L 234 1604.0000035762787 A 8 8 0 0 1 226 1596.0000035762787 L 226 1534.0000035762787 L 226 1534.0000035762787 A 8 8 0 0 1 234 1526.0000035762787 L 500 1526.0000035762787 Z" fill-opacity="1" stroke-opacity="1" stroke-miterlimit="10" stroke-width="5"/><text fill="rgb(0,0,0)" stroke="none" font-family="Avenir, Helvetica, Arial, sans-serif" font-size="32px" font-style="normal" font-weight="bold" text-decoration="normal" x="500" y="1581.0000035762787" text-anchor="middle" dominant-baseline="text-after-edge" fill-opacity="1">ip_range_network</text><path fill="rgb(255,247,224)" stroke="rgb(255,193,7)" paint-order="fill stroke markers" d=" M 500 1659.0000042915344 L 766 1659.0000042915344 L 766 1659.0000042915344 A 8 8 0 0 1 774 1667.0000042915344 L 774 1729.0000042915344 L 774 1729.0000042915344 A 8 8 0 0 1 766 1737.0000042915344 L 234 1737.0000042915344 L 234 1737.0000042915344 A 8 8 0 0 1 226 1729.0000042915344 L 226 1667.0000042915344 L 226 1667.0000042915344 A 8 8 0 0 1 234 1659.0000042915344 L 500 1659.0000042915344 Z" fill-opacity="1" stroke-opacity="1" stroke-miterlimit="10" stroke-width="5"/><text fill="rgb(0,0,0)" stroke="none" font-family="Avenir, Helvetica, Arial, sans-serif" font-size="32px" font-style="normal" font-weight="bold" text-decoration="normal" x="500" y="1714.0000042915344" text-anchor="middle" dominant-baseline="text-after-edge" fill-opacity="1">id_subnet</text><path fill="rgb(255,247,224)" stroke="rgb(255,193,7)" paint-order="fill stroke markers" d=" M 500 1792.0000050067902 L 766 1792.0000050067902 L 766 1792.0000050067902 A 8 8 0 0 1 774 1800.0000050067902 L 774 1862.0000050067902 L 774 1862.0000050067902 A 8 8 0 0 1 766 1870.0000050067902 L 234 1870.0000050067902 L 234 1870.0000050067902 A 8 8 0 0 1 226 1862.0000050067902 L 226 1800.0000050067902 L 226 1800.0000050067902 A 8 8 0 0 1 234 1792.0000050067902 L 500 1792.0000050067902 Z" fill-opacity="1" stroke-opacity="1" stroke-miterlimit="10" stroke-width="5"/><text fill="rgb(0,0,0)" stroke="none" font-family="Avenir, Helvetica, Arial, sans-serif" font-size="32px" font-style="normal" font-weight="bold" text-decoration="normal" x="500" y="1847.0000050067902" text-anchor="middle" dominant-baseline="text-after-edge" fill-opacity="1">ip_range_subnet</text><path fill="rgb(255,247,224)" stroke="rgb(255,193,7)" paint-order="fill stroke markers" d=" M 500 1925.000005722046 L 766 1925.000005722046 L 766 1925.000005722046 A 8 8 0 0 1 774 1933.000005722046 L 774 1995.000005722046 L 774 1995.000005722046 A 8 8 0 0 1 766 2003.000005722046 L 234 2003.000005722046 L 234 2003.000005722046 A 8 8 0 0 1 226 1995.000005722046 L 226 1933.000005722046 L 226 1933.000005722046 A 8 8 0 0 1 234 1925.000005722046 L 500 1925.000005722046 Z" fill-opacity="1" stroke-opacity="1" stroke-miterlimit="10" stroke-width="5"/><text fill="rgb(0,0,0)" stroke="none" font-family="Avenir, Helvetica, Arial, sans-serif" font-size="32px" font-style="normal" font-weight="bold" text-decoration="normal" x="500" y="1980.000005722046" text-anchor="middle" dominant-baseline="text-after-edge" fill-opacity="1">name</text><path fill="rgb(255,247,224)" stroke="rgb(255,193,7)" paint-order="fill stroke markers" d=" M 500 2058.0000064373016 L 766 2058.0000064373016 L 766 2058.0000064373016 A 8 8 0 0 1 774 2066.0000064373016 L 774 2128.0000064373016 L 774 2128.0000064373016 A 8 8 0 0 1 766 2136.0000064373016 L 234 2136.0000064373016 L 234 2136.0000064373016 A 8 8 0 0 1 226 2128.0000064373016 L 226 2066.0000064373016 L 226 2066.0000064373016 A 8 8 0 0 1 234 2058.0000064373016 L 500 2058.0000064373016 Z" fill-opacity="1" stroke-opacity="1" stroke-miterlimit="10" stroke-width="5"/><text fill="rgb(0,0,0)" stroke="none" font-family="Avenir, Helvetica, Arial, sans-serif" font-size="32px" font-style="normal" font-weight="bold" text-decoration="normal" x="500" y="2113.0000064373016" text-anchor="middle" dominant-baseline="text-after-edge" fill-opacity="1">id_network</text><path fill="rgb(0,0,0)" stroke="rgb(0,0,0)" paint-order="fill stroke markers" d=" M 2306.0000014305115 261 L 2572.0000014305115 261 L 2572.0000014305115 261 A 8 8 0 0 1 2580.0000014305115 269 L 2580.0000014305115 331 L 2580.0000014305115 331 A 8 8 0 0 1 2572.0000014305115 339 L 2040.0000014305115 339 L 2040.0000014305115 339 A 8 8 0 0 1 2032.0000014305115 331 L 2032.0000014305115 269 L 2032.0000014305115 269 A 8 8 0 0 1 2040.0000014305115 261 L 2306.0000014305115 261 Z" fill-opacity="1" stroke-opacity="1" stroke-miterlimit="10" stroke-width="5"/><text fill="rgb(255,255,255)" stroke="none" font-family="Avenir, Helvetica, Arial, sans-serif" font-size="32px" font-style="normal" font-weight="bold" text-decoration="normal" x="2306.0000014305115" y="316" text-anchor="middle" dominant-baseline="text-after-edge" fill-opacity="1">ip_range_network</text><path fill="rgb(0,0,0)" stroke="rgb(0,0,0)" paint-order="fill stroke markers" d=" M 2306.0000014305115 394.00000071525574 L 2572.0000014305115 394.00000071525574 L 2572.0000014305115 394.00000071525574 A 8 8 0 0 1 2580.0000014305115 402.00000071525574 L 2580.0000014305115 464.00000071525574 L 2580.0000014305115 464.00000071525574 A 8 8 0 0 1 2572.0000014305115 472.00000071525574 L 2040.0000014305115 472.00000071525574 L 2040.0000014305115 472.00000071525574 A 8 8 0 0 1 2032.0000014305115 464.00000071525574 L 2032.0000014305115 402.00000071525574 L 2032.0000014305115 402.00000071525574 A 8 8 0 0 1 2040.0000014305115 394.00000071525574 L 2306.0000014305115 394.00000071525574 Z" fill-opacity="1" stroke-opacity="1" stroke-miterlimit="10" stroke-width="5"/><text fill="rgb(255,255,255)" stroke="none" font-family="Avenir, Helvetica, Arial, sans-serif" font-size="32px" font-style="normal" font-weight="bold" text-decoration="normal" x="2306.0000014305115" y="449.00000071525574" text-anchor="middle" dominant-baseline="text-after-edge" fill-opacity="1">ip_range_subnet</text><path fill="rgb(0,0,0)" stroke="rgb(0,0,0)" paint-order="fill stroke markers" d=" M 2306.0000014305115 527.0000014305115 L 2572.0000014305115 527.0000014305115 L 2572.0000014305115 527.0000014305115 A 8 8 0 0 1 2580.0000014305115 535.0000014305115 L 2580.0000014305115 597.0000014305115 L 2580.0000014305115 597.0000014305115 A 8 8 0 0 1 2572.0000014305115 605.0000014305115 L 2040.0000014305115 605.0000014305115 L 2040.0000014305115 605.0000014305115 A 8 8 0 0 1 2032.0000014305115 597.0000014305115 L 2032.0000014305115 535.0000014305115 L 2032.0000014305115 535.0000014305115 A 8 8 0 0 1 2040.0000014305115 527.0000014305115 L 2306.0000014305115 527.0000014305115 Z" fill-opacity="1" stroke-opacity="1" stroke-miterlimit="10" stroke-width="5"/><text fill="rgb(255,255,255)" stroke="none" font-family="Avenir, Helvetica, Arial, sans-serif" font-size="32px" font-style="normal" font-weight="bold" text-decoration="normal" x="2306.0000014305115" y="582.0000014305115" text-anchor="middle" dominant-baseline="text-after-edge" fill-opacity="1">name</text><path fill="rgb(0,0,0)" stroke="rgb(0,0,0)" paint-order="fill stroke markers" d=" M 2306.0000014305115 660.0000021457672 L 2572.0000014305115 660.0000021457672 L 2572.0000014305115 660.0000021457672 A 8 8 0 0 1 2580.0000014305115 668.0000021457672 L 2580.0000014305115 730.0000021457672 L 2580.0000014305115 730.0000021457672 A 8 8 0 0 1 2572.0000014305115 738.0000021457672 L 2040.0000014305115 738.0000021457672 L 2040.0000014305115 738.0000021457672 A 8 8 0 0 1 2032.0000014305115 730.0000021457672 L 2032.0000014305115 668.0000021457672 L 2032.0000014305115 668.0000021457672 A 8 8 0 0 1 2040.0000014305115 660.0000021457672 L 2306.0000014305115 660.0000021457672 Z" fill-opacity="1" stroke-opacity="1" stroke-miterlimit="10" stroke-width="5"/><text fill="rgb(255,255,255)" stroke="none" font-family="Avenir, Helvetica, Arial, sans-serif" font-size="32px" font-style="normal" font-weight="bold" text-decoration="normal" x="2306.0000014305115" y="715.0000021457672" text-anchor="middle" dominant-baseline="text-after-edge" fill-opacity="1">network_zone</text><path fill="rgb(0,0,0)" stroke="rgb(0,0,0)" paint-order="fill stroke markers" d=" M 2306.0000014305115 793.000002861023 L 2572.0000014305115 793.000002861023 L 2572.0000014305115 793.000002861023 A 8 8 0 0 1 2580.0000014305115 801.000002861023 L 2580.0000014305115 863.000002861023 L 2580.0000014305115 863.000002861023 A 8 8 0 0 1 2572.0000014305115 871.000002861023 L 2040.0000014305115 871.000002861023 L 2040.0000014305115 871.000002861023 A 8 8 0 0 1 2032.0000014305115 863.000002861023 L 2032.0000014305115 801.000002861023 L 2032.0000014305115 801.000002861023 A 8 8 0 0 1 2040.0000014305115 793.000002861023 L 2306.0000014305115 793.000002861023 Z" fill-opacity="1" stroke-opacity="1" stroke-miterlimit="10" stroke-width="5"/><text fill="rgb(255,255,255)" stroke="none" font-family="Avenir, Helvetica, Arial, sans-serif" font-size="32px" font-style="normal" font-weight="bold" text-decoration="normal" x="2306.0000014305115" y="848.000002861023" text-anchor="middle" dominant-baseline="text-after-edge" fill-opacity="1">type</text><g transform="scale(5,5) translate(-57.7,-9.200000000000001)"/></g></svg>